<svg width="104" height="72" viewBox="0 0 104 72" fill="none" xmlns="http://www.w3.org/2000/svg">
<path d="M89.1753 0L103.271 15H85.0469L89.1753 0Z" fill="#034D71"/>
<path d="M0 4.99999C0 2.23857 2.23858 0 5 0H89.3339L73.4918 67.2215C72.9597 69.4793 70.9447 71.0746 68.6252 71.0746H5C2.23858 71.0746 0 68.836 0 66.0746V4.99999Z" fill="#027EBA"/>
<g clip-path="url(#clip0_1695_15244)">
<path d="M44.6473 40.9336V37.0433H52.2981V54.5373H24.7474V48.8131H31.3684V44.8734H37.7976V40.9336H44.6473ZM25.8236 32.5561L25.236 32.0799C25.2259 32.0771 25.2152 32.0771 25.2051 32.0799C25.1992 32.0802 25.1934 32.0817 25.188 32.0844C25.1827 32.0871 25.178 32.0908 25.1742 32.0954L24.1691 33.3323C24.1664 33.3425 24.1664 33.3531 24.1691 33.3633C24.17 33.3694 24.1721 33.3753 24.1753 33.3806C24.1785 33.3859 24.1827 33.3905 24.1877 33.3942L24.7629 33.855C24.774 33.8581 24.7858 33.8581 24.7969 33.855C24.8025 33.8549 24.8079 33.8534 24.8128 33.8507C24.8176 33.848 24.8217 33.8442 24.8247 33.8395L25.8298 32.6025C25.8318 32.5976 25.8329 32.5924 25.8329 32.5871C25.8329 32.5818 25.8318 32.5765 25.8298 32.5716C25.8295 32.5657 25.8279 32.5598 25.8253 32.5545C25.8226 32.5492 25.8189 32.5445 25.8143 32.5407L25.8236 32.5561ZM24.1382 26.8289L26.1823 28.4834L27.1348 27.3608C27.2031 27.2761 27.302 27.2217 27.41 27.2093C27.5205 27.1965 27.6316 27.2276 27.7193 27.2959C28.1491 26.8042 28.5759 26.3001 28.9965 25.8053C29.3057 25.4033 29.615 25.0384 29.9242 24.7168C30.219 24.392 30.5524 24.1043 30.9169 23.8602C31.3087 23.604 31.7387 23.412 32.191 23.2912C32.7459 23.1496 33.316 23.0759 33.8887 23.0716H33.9135C34.3835 23.0469 34.934 23.0716 35.3947 23.0716H35.9637C38.2769 23.0716 39.4273 24.2034 40.3179 25.0848C40.5004 25.2641 40.6735 25.4342 40.8344 25.5703C40.9685 25.6969 41.1219 25.8013 41.2889 25.8795C41.3632 25.9043 41.5611 25.8053 41.7806 25.694C41.9556 25.6019 42.1364 25.5213 42.3218 25.4528C43.0949 25.0972 43.8866 24.6673 44.6566 24.3519C44.82 24.2847 44.9972 24.2582 45.1731 24.2746C45.3586 24.2916 45.5392 24.3441 45.705 24.4292C45.8267 24.4906 45.94 24.5675 46.042 24.658C46.146 24.7495 46.2385 24.8533 46.3173 24.9673V24.9827C46.3995 25.1003 46.4661 25.2282 46.5152 25.3631C46.6457 25.7483 46.6281 26.1684 46.4657 26.5413C46.4101 26.6978 46.3308 26.8449 46.2307 26.9774C46.0374 27.2366 45.7732 27.4342 45.4699 27.5464C44.8916 27.8278 44.3103 28.1154 43.7258 28.3659C43.2367 28.5942 42.7273 28.7764 42.2043 28.9101C41.6052 29.0303 40.9882 29.0303 40.389 28.9101H40.3334C39.633 28.6923 38.9919 28.3167 38.4594 27.8123L38.1501 30.7903C38.3882 30.914 38.6233 31.0223 38.8521 31.1212C39.1335 31.2418 39.4025 31.347 39.6654 31.449C41.3415 32.1015 42.7207 32.6427 43.1784 35.2033C43.2341 35.5125 43.2867 36.131 43.33 36.8423C43.4011 37.9092 43.4537 39.1554 43.466 39.61C43.469 39.6284 43.469 39.6472 43.466 39.6657C43.4539 39.7106 43.4274 39.7504 43.3905 39.7789C43.3537 39.8073 43.3085 39.823 43.2619 39.8234H43.2279C43.1623 39.8334 43.0963 39.8396 43.03 39.8419H42.4919C41.8734 39.8419 41.0972 39.8419 40.7323 39.8419H40.6426C40.5127 39.8419 40.4509 39.8419 40.3705 39.7554C40.3429 39.7221 40.3227 39.6835 40.3109 39.642C40.2992 39.6004 40.2963 39.5569 40.3025 39.5141V39.3904C40.2746 38.874 40.219 38.0081 40.1633 37.2257C40.12 36.6691 40.0798 36.1681 40.0458 35.9022C40.0329 35.8104 40.0143 35.7195 39.9901 35.63C39.9649 35.5457 39.9318 35.4639 39.8912 35.3857L39.8633 35.3362C39.7705 35.1662 39.6871 35.0084 39.6221 34.9837C39.5015 34.9342 39.3407 34.8817 39.1552 34.826C38.9696 34.7703 38.6975 34.6961 38.4532 34.6312C38.2089 34.5662 37.9213 34.4982 37.6244 34.4302L36.9193 34.2724C36.7152 35.1229 36.5513 36.0197 36.3874 36.9629C35.9792 39.1987 35.5463 41.5675 34.733 43.457C34.7116 43.5074 34.672 43.5478 34.6221 43.5702C34.5722 43.5926 34.5157 43.5952 34.4639 43.5776C34.2439 43.6106 34.0215 43.6251 33.799 43.6209C33.1403 43.6209 32.2281 43.6209 31.8353 43.5962H31.7487C31.6158 43.5962 31.5477 43.5962 31.4735 43.4879C31.4487 43.4494 31.4328 43.4058 31.4269 43.3603C31.421 43.3149 31.4253 43.2687 31.4395 43.2251L31.4611 43.123C31.5013 42.9158 31.5663 42.5942 31.6498 42.1953L31.9961 40.5841C32.225 39.5234 32.5373 38.1102 32.8404 36.7526C33.2331 34.9775 33.5826 33.4282 33.7032 32.8963C33.5918 32.7695 33.4805 32.6396 33.3939 32.5036C33.2642 32.3305 33.1484 32.1475 33.0476 31.9562C32.935 31.738 32.8508 31.5062 32.7971 31.2666C32.7421 31.0148 32.7306 30.7554 32.7631 30.4997L33.295 26.3589C33.107 26.3605 32.922 26.4049 32.7538 26.4888C32.583 26.5856 32.4286 26.7088 32.2961 26.8537C32.1446 27.0145 31.9869 27.2093 31.8322 27.4165C31.7054 27.5773 31.5725 27.7505 31.4086 27.9422C31.0096 28.4061 30.6076 28.8885 30.2025 29.3555C30.2289 29.4236 30.2369 29.4976 30.2255 29.5698C30.2141 29.6421 30.1837 29.71 30.1376 29.7667L29.1511 30.8955L31.189 32.5499C31.3047 32.6442 31.3799 32.7792 31.3993 32.9272C31.4076 33.0032 31.4006 33.0801 31.3789 33.1534C31.3571 33.2266 31.3209 33.2948 31.2725 33.354L30.3881 34.4735C29.61 34.4131 28.8389 34.2826 28.0842 34.0838C27.3425 33.8875 26.6225 33.6171 25.9349 33.2767L26.2875 32.8406C26.3264 32.793 26.3556 32.7381 26.3732 32.6792C26.3909 32.6202 26.3967 32.5584 26.3904 32.4972C26.3841 32.4359 26.3657 32.3766 26.3364 32.3225C26.307 32.2684 26.2673 32.2206 26.2194 32.1819L25.5391 31.6284C25.4915 31.5895 25.4366 31.5603 25.3776 31.5426C25.3187 31.525 25.2568 31.5191 25.1956 31.5255C25.1344 31.5318 25.075 31.5501 25.0209 31.5795C24.9669 31.6088 24.9191 31.6486 24.8804 31.6964L24.5341 32.1232C24.0738 31.5326 23.672 30.8988 23.3342 30.2306C22.977 29.5088 22.6881 28.755 22.4714 27.9793L23.3342 26.9186C23.4311 26.7991 23.5715 26.7228 23.7245 26.7066C23.8775 26.6903 24.0308 26.7355 24.1506 26.832L24.1382 26.8289ZM27.1781 28.3566L26.7111 28.907L28.6377 30.4533L28.9965 30.0389C28.4491 29.5688 27.6945 28.8947 27.2121 28.3906L27.1781 28.3535V28.3566ZM29.8623 35.0919L27.4595 38.0545C27.4122 38.1141 27.3532 38.1634 27.2862 38.1996C27.2193 38.2357 27.1457 38.2579 27.0699 38.2648C26.9169 38.2813 26.7635 38.2369 26.6431 38.1411L19.5923 32.4324C19.472 32.335 19.3952 32.1937 19.3789 32.0397C19.3706 31.9642 19.3775 31.8878 19.3992 31.815C19.421 31.7422 19.4572 31.6745 19.5057 31.616L21.9302 28.6256C22.1402 29.2625 22.3975 29.8827 22.7002 30.4811C23.0848 31.2507 23.5514 31.9764 24.0918 32.6458L23.7084 33.119C23.6696 33.1668 23.6407 33.2218 23.6233 33.2809C23.6058 33.34 23.6003 33.4019 23.6069 33.4631C23.6135 33.5243 23.6322 33.5836 23.6618 33.6376C23.6914 33.6916 23.7314 33.7392 23.7795 33.7777L24.4598 34.3312C24.5075 34.3701 24.5624 34.3993 24.6213 34.417C24.6803 34.4346 24.7421 34.4405 24.8033 34.4341C24.8645 34.4278 24.9239 34.4095 24.978 34.3801C25.0321 34.3508 25.0798 34.311 25.1185 34.2632L25.5175 33.7715L25.4989 33.8055C26.2771 34.2027 27.0963 34.5138 27.9419 34.7332C28.5722 34.9007 29.2141 35.0206 29.8623 35.0919ZM43.0826 39.6378C43.0826 39.6595 43.0826 39.6626 43.0826 39.6378V39.6378ZM35.6607 16.7537C36.0133 16.607 36.3921 16.5334 36.774 16.5373C37.3435 16.5351 37.9008 16.7024 38.375 17.0179C38.8492 17.3335 39.2187 17.783 39.4366 18.3092C39.5838 18.6576 39.6595 19.032 39.6592 19.4101C39.6614 19.9797 39.4941 20.537 39.1785 21.0112C38.863 21.4853 38.4135 21.8549 37.8872 22.0727C37.5389 22.2199 37.1645 22.2957 36.7863 22.2954C36.4088 22.2957 36.0348 22.2221 35.6854 22.0789C34.9856 21.7886 34.4295 21.2325 34.1392 20.5327C33.9897 20.1817 33.9129 19.804 33.9135 19.4225C33.9102 18.8544 34.0757 18.298 34.389 17.824C34.7022 17.35 35.1491 16.9797 35.6731 16.7599L35.6607 16.7537Z" fill="white"/>
</g>
<defs>
<clipPath id="clip0_1695_15244">
<rect width="32.9191" height="38" fill="white" transform="translate(19.3789 16.5371)"/>
</clipPath>
</defs>
</svg>
