<svg width="252" height="65" viewBox="0 0 252 65" fill="none" xmlns="http://www.w3.org/2000/svg">
<g clip-path="url(#clip0_199_2446)">
<path d="M96.2542 64.3263V53.0542H98.2207V64.3263H96.2542Z" fill="#FF6300"/>
<path d="M108.758 53.0542V54.8809H105.675V64.3263H103.7V54.8809H100.601V53.0542H108.758Z" fill="#FF6300"/>
<path d="M110.537 57.3537L111.694 53.0542H113.887L112.147 57.3537H110.537Z" fill="#FF6300"/>
<path d="M119.779 64.5199C118.768 64.5514 117.782 64.1972 117.028 63.5309C116.671 63.222 116.387 62.8398 116.196 62.4113C116.004 61.9827 115.91 61.5181 115.92 61.05H117.943C117.938 61.28 117.983 61.5085 118.077 61.7193C118.171 61.9301 118.31 62.1183 118.485 62.2704C118.845 62.5999 119.321 62.7774 119.812 62.7651C120.276 62.7783 120.729 62.6284 121.09 62.3423C121.251 62.2184 121.381 62.0596 121.469 61.8785C121.557 61.6973 121.602 61.4984 121.6 61.2973C121.6 60.4439 120.84 59.8377 119.318 59.4707C117.174 58.9362 116.106 57.8035 116.098 56.0566C116.091 55.6233 116.182 55.194 116.364 54.7994C116.546 54.405 116.814 54.0551 117.15 53.7753C117.89 53.1731 118.82 52.8458 119.78 52.8501C120.739 52.8545 121.667 53.1904 122.401 53.7993C122.742 54.0942 123.014 54.4591 123.197 54.8683C123.38 55.2775 123.47 55.7213 123.461 56.1685H121.438C121.442 55.9586 121.402 55.7502 121.32 55.5565C121.238 55.3629 121.116 55.1882 120.961 55.0437C120.631 54.7446 120.195 54.5844 119.747 54.5971C119.326 54.5816 118.913 54.7208 118.59 54.9877C118.439 55.1088 118.318 55.2623 118.237 55.4366C118.156 55.6109 118.116 55.8012 118.121 55.993C118.121 56.8145 118.833 57.3968 120.257 57.7398C121.165 57.9374 122.012 58.3477 122.725 58.9362C123.324 59.4788 123.623 60.2206 123.623 61.1698C123.632 61.6243 123.538 62.0751 123.348 62.4891C123.157 62.9031 122.875 63.2699 122.523 63.5627C121.762 64.2096 120.783 64.5513 119.779 64.5199Z" fill="#FF6300"/>
<path d="M140.71 53.0542H142.911L138.372 60.2891V64.3263H136.397V60.2902L131.858 53.0552H134.099L137.409 58.3272L140.71 53.0542Z" fill="#FF6300"/>
<path d="M149.471 64.5219C147.755 64.5219 146.322 63.9635 145.173 62.8469C144.068 61.7361 143.449 60.2426 143.449 58.6871C143.449 57.1314 144.068 55.6379 145.173 54.5271C146.322 53.4104 147.755 52.852 149.471 52.852C150.263 52.8312 151.051 52.9689 151.788 53.2569C152.525 53.5447 153.196 53.9768 153.758 54.5271C154.864 55.6379 155.482 57.1314 155.482 58.6871C155.482 60.2426 154.864 61.7361 153.758 62.8469C153.196 63.3971 152.525 63.8293 151.788 64.1171C151.051 64.4051 150.263 64.5428 149.471 64.5219ZM152.318 61.4989C152.888 60.9464 153.277 60.2387 153.436 59.4664C153.595 58.6941 153.515 57.8928 153.209 57.1654C152.901 56.438 152.38 55.8178 151.712 55.3846C151.044 54.9515 150.261 54.7249 149.462 54.7345C148.936 54.7213 148.413 54.8151 147.927 55.01C147.439 55.2047 146.997 55.4967 146.63 55.8672C145.898 56.6268 145.488 57.6349 145.488 58.6831C145.488 59.7313 145.898 60.7394 146.63 61.499C146.997 61.8707 147.439 62.1638 147.925 62.3601C148.413 62.5562 148.936 62.6516 149.462 62.6397C149.993 62.6523 150.518 62.5576 151.011 62.3613C151.501 62.1652 151.947 61.8715 152.318 61.4989Z" fill="#FF6300"/>
<path d="M159.491 63.2244C159.051 62.8047 158.705 62.2993 158.473 61.7404C158.243 61.1815 158.132 60.5813 158.148 59.9779V53.0542H160.107V59.9461C160.095 60.3071 160.156 60.6667 160.289 61.0035C160.421 61.3404 160.619 61.6478 160.874 61.9072C161.13 62.1667 161.435 62.373 161.771 62.5139C162.108 62.6548 162.471 62.7273 162.838 62.7273C163.204 62.7273 163.566 62.6548 163.904 62.5139C164.241 62.373 164.547 62.1667 164.801 61.9072C165.056 61.6478 165.255 61.3404 165.386 61.0035C165.518 60.6667 165.58 60.3071 165.569 59.9461V53.0542H167.543V59.9779C167.559 60.5806 167.449 61.1799 167.22 61.7386C166.989 62.2973 166.645 62.8031 166.207 63.2244C165.295 64.0603 164.095 64.5247 162.849 64.5247C161.603 64.5247 160.404 64.0603 159.491 63.2244Z" fill="#FF6300"/>
<path d="M176.187 64.3278L172.958 60.132H172.74V64.3278H170.773V53.0555H174.633C175.127 53.0419 175.619 53.125 176.08 53.3001C176.541 53.4753 176.963 53.7389 177.32 54.0759C177.672 54.4027 177.949 54.7989 178.135 55.2388C178.32 55.6786 178.409 56.1521 178.396 56.6284C178.417 57.4714 178.111 58.2904 177.538 58.9177C176.963 59.5494 176.181 59.9617 175.329 60.0822L178.655 64.3265L176.187 64.3278ZM172.74 54.8833V58.4328H174.601C174.837 58.4404 175.071 58.3989 175.289 58.3111C175.506 58.2232 175.702 58.0907 175.864 57.9227C176.181 57.5729 176.357 57.12 176.357 56.6505C176.357 56.1809 176.181 55.7279 175.864 55.3781C175.699 55.2152 175.502 55.0872 175.284 55.0021C175.068 54.9171 174.836 54.8767 174.601 54.8834L172.74 54.8833Z" fill="#FF6300"/>
<path d="M191.194 64.5199C190.182 64.5514 189.197 64.1972 188.442 63.5309C188.087 63.222 187.802 62.8398 187.61 62.4113C187.419 61.9827 187.324 61.5182 187.334 61.05H189.358C189.352 61.28 189.397 61.5085 189.491 61.7193C189.586 61.9301 189.725 62.1183 189.899 62.2704C190.259 62.5999 190.736 62.7774 191.227 62.7651C191.691 62.7783 192.143 62.6284 192.505 62.3423C192.665 62.2184 192.794 62.0596 192.883 61.8784C192.972 61.6973 193.017 61.4984 193.015 61.2973C193.015 60.4439 192.254 59.8377 190.733 59.4707C188.589 58.9362 187.52 57.8035 187.513 56.0566C187.506 55.6233 187.596 55.194 187.779 54.7994C187.96 54.405 188.229 54.0551 188.565 53.7753C189.304 53.1731 190.235 52.8458 191.194 52.8501C192.153 52.8545 193.081 53.1904 193.815 53.7993C194.157 54.0942 194.428 54.4591 194.611 54.8683C194.794 55.2775 194.885 55.7213 194.876 56.1685H192.854C192.858 55.9586 192.817 55.7501 192.734 55.5564C192.652 55.3627 192.53 55.1881 192.375 55.0437C192.045 54.7446 191.61 54.5844 191.162 54.5971C190.74 54.5816 190.328 54.7208 190.005 54.9877C189.854 55.1088 189.733 55.2623 189.652 55.4367C189.57 55.6109 189.531 55.8012 189.535 55.993C189.535 56.8145 190.248 57.3968 191.671 57.7398C192.579 57.9374 193.426 58.3477 194.14 58.9362C194.738 59.4788 195.037 60.2205 195.037 61.1698C195.047 61.6243 194.953 62.075 194.762 62.4889C194.572 62.9031 194.289 63.2698 193.938 63.5627C193.177 64.2096 192.198 64.5511 191.194 64.5199Z" fill="#FF6300"/>
<path d="M207.001 64.3263H204.518L199.856 59.4128V64.3263H197.89V53.0542H199.856V57.8403L204.452 53.0542H206.904L201.684 58.6379L207.001 64.3263Z" fill="#FF6300"/>
<path d="M217.507 53.0542H219.708L215.169 60.2891V64.3263H213.194V60.2902L208.655 53.0552H210.897L214.205 58.3277L217.507 53.0542Z" fill="#FF6300"/>
<path d="M180.34 36.1011C180.34 36.5196 180.552 36.7289 180.977 36.729H185.734V15.7943H184.29C182.633 15.7943 180.764 16.7155 180.468 19.0591C179.066 16.5471 176.347 15.3327 173.119 15.3327C167.597 15.3327 162.755 19.6872 162.755 26.554C162.755 33.0858 166.238 37.189 172.44 37.189C176.899 37.189 178.767 35.1792 178.767 33.2114C178.767 32.1645 178.343 31.411 177.876 31.0759C177.111 31.8717 175.753 32.4578 173.926 32.4578C171.122 32.4578 168.616 30.9086 168.616 26.554C168.616 22.4089 171.504 20.3572 174.521 20.3572C178.385 20.3572 180.34 22.8276 180.34 26.4283V36.1011ZM214.235 11.0208L224.302 36.729H218.567C218.058 36.729 217.846 36.5196 217.676 36.0591L209.732 14.6635L205.485 26.0521H208.246C210.795 26.0521 211.771 27.0152 212.366 28.5644L213.087 30.4486C213.257 30.8674 213.087 31.1604 212.663 31.1604H203.573L201.534 36.729H196.268C196.178 36.739 196.088 36.7251 196.005 36.6886C195.923 36.6522 195.851 36.5946 195.799 36.5219C195.747 36.449 195.716 36.3638 195.709 36.2751C195.701 36.1863 195.719 36.0973 195.759 36.0173L205.145 11.8572C206.122 9.34513 207.396 8.50769 209.562 8.50769H214.235C214.575 8.50769 214.702 8.67521 214.702 8.88458C214.702 9.34513 214.022 9.47062 214.022 10.1826C214.042 10.4721 214.114 10.7559 214.235 11.0208ZM133.363 36.1011C133.363 36.5196 133.576 36.7289 134 36.729H138.758V15.7943H137.313C135.657 15.7943 133.788 16.7155 133.491 19.0591C132.089 16.5471 129.371 15.3327 126.142 15.3327C120.621 15.3327 115.779 19.6872 115.779 26.554C115.779 33.0858 119.261 37.189 125.462 37.189C129.923 37.189 131.791 35.1792 131.791 33.2114C131.791 32.1645 131.367 31.411 130.899 31.0759C130.135 31.8717 128.775 32.4578 126.949 32.4578C124.146 32.4578 121.64 30.9086 121.64 26.554C121.64 22.4089 124.528 20.3572 127.544 20.3572C131.409 20.3572 133.363 22.8276 133.363 26.4283L133.363 36.1011ZM108.388 16.5476C108.856 15.9614 109.068 15.7939 109.917 15.7939H116.076L106.987 25.8008L116.289 36.729H109.96C109.111 36.729 108.898 36.5617 108.431 35.9754L101.465 27.5594V36.729H96.7082C96.2834 36.729 96.071 36.5198 96.071 36.1011V11.1463C96.0762 10.1152 96.494 9.1277 97.2337 8.39856C97.9735 7.6694 98.9751 7.2575 100.021 7.25235H101.465V24.2518L108.388 16.5476ZM82.9038 11.0208L92.9704 36.729H87.2366C86.7267 36.729 86.5145 36.5196 86.3446 36.0591L78.4015 14.6635L74.1543 26.0521H76.9148C79.4634 26.0521 80.4401 27.0152 81.034 28.5644L81.756 30.4486C81.9259 30.8674 81.756 31.1604 81.3312 31.1604H72.2428L70.2041 36.729H64.9372C64.8475 36.739 64.7566 36.7251 64.6742 36.6886C64.5918 36.6522 64.5208 36.5946 64.4688 36.5219C64.4166 36.449 64.3854 36.3638 64.3781 36.2751C64.3709 36.1863 64.3879 36.0973 64.4276 36.0173L73.8144 11.8572C74.7914 9.34513 76.0654 8.50769 78.2317 8.50769H82.9038C83.2437 8.50769 83.3711 8.67521 83.3711 8.88458C83.3711 9.34513 82.6914 9.47062 82.6914 10.1826C82.7116 10.4721 82.7834 10.7559 82.9038 11.0208ZM237.341 19.6878V36.1011C237.341 36.5196 237.554 36.7289 237.978 36.729H242.736V26.3031C242.736 22.8696 245.157 20.5667 248.214 20.5667C249.362 20.5667 249.999 20.6924 250.636 20.9435C251.06 20.107 251.443 18.892 251.443 17.9707C251.443 16.7148 250.764 15.5425 248.47 15.5425C246.303 15.5425 243.967 16.9661 242.736 19.9388V15.7943H241.293C238.912 15.7943 237.341 17.3432 237.341 19.6878ZM227.402 19.6878C227.407 18.6566 227.824 17.6692 228.564 16.9401C229.304 16.211 230.306 15.799 231.352 15.7939H232.797V36.7298H228.039C227.615 36.7298 227.402 36.5206 227.402 36.102V19.6878ZM141.859 33.0026C141.859 35.766 146.785 37.1895 150.735 37.1895C155.96 37.1895 160.249 34.7613 160.249 30.4066C160.249 27.1826 158.594 25.2985 154.6 24.3356L150.098 23.2469C148.952 22.9537 148.315 22.4932 148.315 21.4464C148.315 20.4417 149.376 19.8139 151.415 19.8139C153.821 19.835 156.168 20.5481 158.168 21.8654C159.017 21.0289 159.57 19.8139 159.57 19.0602C159.57 16.7155 155.662 15.3336 151.373 15.3336C146.786 15.3336 142.58 17.5948 142.58 21.9494C142.58 25.2142 144.237 27.2668 147.974 28.1042L152.563 29.1511C153.751 29.4023 154.432 29.9046 154.432 30.8678C154.432 32.0819 153.412 32.7099 150.949 32.7099C147.762 32.7099 144.874 31.2863 143.175 30.1558C142.368 30.9928 141.859 31.9554 141.859 33.0026ZM230.163 6.12209C229.718 6.1152 229.277 6.19574 228.863 6.359C228.451 6.52226 228.076 6.76499 227.76 7.07296C227.443 7.38093 227.191 7.74798 227.021 8.15265C226.851 8.55733 226.763 8.99151 226.764 9.42981C226.751 9.87317 226.83 10.3145 226.997 10.7267C227.163 11.1389 227.412 11.5133 227.731 11.8269C228.049 12.1406 228.429 12.3869 228.847 12.5507C229.266 12.7145 229.713 12.7924 230.163 12.7796C232.074 12.7796 233.604 11.3977 233.604 9.42981C233.599 8.9893 233.508 8.55382 233.332 8.14853C233.158 7.74327 232.902 7.37624 232.583 7.06866C232.262 6.76108 231.884 6.51907 231.469 6.3566C231.053 6.19413 230.61 6.11442 230.163 6.12209Z" fill="#5C0FD9"/>
<path d="M0.378503 40.9862L15.9795 14.8755C16.2367 14.453 16.408 14.2838 16.6652 14.2838C16.9653 14.2838 17.0938 14.4952 17.3081 14.8332C19.3226 18.3399 20.3084 21.7623 20.3084 25.4378C20.3084 35.24 12.4649 42.0422 1.23568 42.0422C1.02144 42.0422 0.207107 42.0422 0.207107 41.4931C0.204595 41.3099 0.264998 41.1313 0.378503 40.9862Z" fill="#FF6300"/>
<path d="M36.1805 16.8073L49.8527 40.89C50.1956 41.4818 49.9814 41.9884 49.1242 41.9884C39.0949 41.9884 34.4233 38.2706 30.6516 31.6371L20.1082 13.0478C19.4653 11.9491 19.251 11.1886 19.251 10.5551C19.251 9.83678 19.5509 8.99178 20.4081 7.47076L21.694 5.14739C23.5797 1.725 25.6371 0.203979 30.4802 0.203979H33.9089C34.4233 0.203979 34.4662 0.584336 34.2089 0.880011C33.3089 1.9364 32.4946 3.41518 32.4946 5.90791C32.4946 8.44186 33.4374 11.9485 36.1805 16.8073Z" fill="#FF6300"/>
</g>
<defs>
<clipPath id="clip0_199_2446">
<rect width="251.71" height="64.6852" fill="white"/>
</clipPath>
</defs>
</svg>
