<svg xmlns="http://www.w3.org/2000/svg" viewBox="0 0 252 65" fill="none">
  <mask id="alska-mask" width="252" height="65" x="0" y="0" maskUnits="userSpaceOnUse" style="mask-type:alpha">
    <g clip-path="url(#alska-clip)">
      <path fill="#FF6300" d="M96.254 64.326V53.054h1.967v11.272h-1.967ZM108.758 53.054v1.827h-3.083v9.445H103.7v-9.445h-3.099v-1.827h8.157ZM110.537 57.354l1.157-4.3h2.193l-1.74 4.3h-1.61ZM119.779 64.52a3.97 3.97 0 0 1-2.751-.99 3.21 3.21 0 0 1-.832-1.119 3.164 3.164 0 0 1-.276-1.361h2.023a1.56 1.56 0 0 0 .542 1.22c.36.33.836.507 1.327.495.464.013.917-.137 1.278-.423a1.307 1.307 0 0 0 .51-1.045c0-.853-.76-1.46-2.282-1.826-2.144-.535-3.212-1.668-3.22-3.414a2.889 2.889 0 0 1 .266-1.258 2.93 2.93 0 0 1 .786-1.024c.74-.602 1.67-.93 2.63-.925.959.004 1.887.34 2.621.95a3.034 3.034 0 0 1 1.06 2.37h-2.023a1.495 1.495 0 0 0-.477-1.126c-.33-.3-.766-.46-1.214-.447a1.719 1.719 0 0 0-1.157.39 1.254 1.254 0 0 0-.469 1.006c0 .821.712 1.404 2.136 1.747a5.822 5.822 0 0 1 2.468 1.196c.599.543.898 1.285.898 2.234a3.02 3.02 0 0 1-1.1 2.393 4.043 4.043 0 0 1-2.744.957ZM140.71 53.054h2.201l-4.539 7.235v4.037h-1.975V60.29l-4.539-7.235h2.241l3.31 5.272 3.301-5.273ZM149.471 64.522c-1.716 0-3.149-.558-4.298-1.675a5.897 5.897 0 0 1-1.724-4.16c0-1.556.619-3.05 1.724-4.16 1.149-1.117 2.582-1.675 4.298-1.675.792-.02 1.58.117 2.317.405.737.288 1.408.72 1.97 1.27a5.893 5.893 0 0 1 1.724 4.16c0 1.556-.618 3.05-1.724 4.16a5.867 5.867 0 0 1-1.97 1.27 5.938 5.938 0 0 1-2.317.405Zm2.847-3.023c.57-.553.959-1.26 1.118-2.033a3.902 3.902 0 0 0-.227-2.3 3.967 3.967 0 0 0-1.497-1.781 4.047 4.047 0 0 0-2.25-.65 3.866 3.866 0 0 0-2.832 1.132 4.06 4.06 0 0 0-1.142 2.816 4.06 4.06 0 0 0 1.142 2.816c.367.372.809.665 1.295.861a3.887 3.887 0 0 0 1.537.28 3.93 3.93 0 0 0 1.549-.279c.49-.196.936-.49 1.307-.862ZM159.491 63.224a4.33 4.33 0 0 1-1.343-3.247v-6.923h1.959v6.892a2.686 2.686 0 0 0 .767 1.961 2.76 2.76 0 0 0 3.927 0 2.67 2.67 0 0 0 .768-1.96v-6.893h1.974v6.924a4.338 4.338 0 0 1-1.336 3.246 4.971 4.971 0 0 1-3.358 1.3 4.973 4.973 0 0 1-3.358-1.3ZM176.187 64.328l-3.229-4.196h-.218v4.196h-1.967V53.055h3.86c.494-.013.986.07 1.447.245.461.175.883.439 1.24.776a3.348 3.348 0 0 1 1.076 2.553 3.271 3.271 0 0 1-.858 2.289 3.684 3.684 0 0 1-2.209 1.164l3.326 4.244-2.468.002Zm-3.447-9.445v3.55h1.861a1.67 1.67 0 0 0 1.263-.51c.317-.35.493-.803.493-1.273 0-.47-.176-.922-.493-1.272a1.729 1.729 0 0 0-1.263-.495h-1.861ZM191.194 64.52a3.973 3.973 0 0 1-2.752-.99 3.248 3.248 0 0 1-.832-1.119 3.178 3.178 0 0 1-.276-1.361h2.024c-.006.23.039.459.133.67.095.21.234.398.408.55.36.33.837.507 1.328.495a1.97 1.97 0 0 0 1.278-.423c.16-.124.289-.282.378-.464.089-.18.134-.38.132-.58 0-.854-.761-1.46-2.282-1.827-2.144-.535-3.213-1.668-3.22-3.414a2.919 2.919 0 0 1 1.052-2.281 4.134 4.134 0 0 1 2.629-.926c.959.004 1.887.34 2.621.95a3.06 3.06 0 0 1 1.061 2.368h-2.022a1.5 1.5 0 0 0-.479-1.125c-.33-.298-.765-.459-1.213-.446a1.717 1.717 0 0 0-1.157.39 1.253 1.253 0 0 0-.47 1.006c0 .821.713 1.404 2.136 1.747a5.832 5.832 0 0 1 2.469 1.196c.598.543.897 1.284.897 2.234a2.99 2.99 0 0 1-.275 1.319 3.07 3.07 0 0 1-.824 1.074 4.044 4.044 0 0 1-2.744.957ZM207.001 64.326h-2.483l-4.662-4.913v4.913h-1.966V53.054h1.966v4.786l4.596-4.786h2.452l-5.22 5.584 5.317 5.688ZM217.507 53.054h2.201l-4.539 7.235v4.037h-1.975V60.29l-4.539-7.235h2.242l3.308 5.273 3.302-5.274Z"/>
      <path fill="#5C0FD9" d="M180.34 36.101c0 .419.212.628.637.628h4.757V15.794h-1.444c-1.657 0-3.526.921-3.822 3.265-1.402-2.512-4.121-3.726-7.349-3.726-5.522 0-10.364 4.354-10.364 11.221 0 6.532 3.483 10.635 9.685 10.635 4.459 0 6.327-2.01 6.327-3.978 0-1.047-.424-1.8-.891-2.135-.765.796-2.123 1.382-3.95 1.382-2.804 0-5.31-1.55-5.31-5.904 0-4.145 2.888-6.197 5.905-6.197 3.864 0 5.819 2.47 5.819 6.071v9.673Zm33.895-25.08 10.067 25.708h-5.735c-.509 0-.721-.21-.891-.67l-7.944-21.395-4.247 11.388h2.761c2.549 0 3.525.963 4.12 2.512l.721 1.885c.17.418 0 .711-.424.711h-9.09l-2.039 5.569h-5.266a.51.51 0 0 1-.469-.207.491.491 0 0 1-.04-.505l9.386-24.16c.977-2.512 2.251-3.35 4.417-3.35h4.673c.34 0 .467.168.467.378 0 .46-.68.586-.68 1.298.02.29.092.573.213.838ZM133.363 36.1c0 .419.213.628.637.628h4.758V15.794h-1.445c-1.656 0-3.525.921-3.822 3.265-1.402-2.512-4.12-3.726-7.349-3.726-5.521 0-10.363 4.354-10.363 11.221 0 6.532 3.482 10.635 9.683 10.635 4.461 0 6.329-2.01 6.329-3.978 0-1.047-.424-1.8-.892-2.135-.764.796-2.124 1.382-3.95 1.382-2.803 0-5.309-1.55-5.309-5.904 0-4.145 2.888-6.197 5.904-6.197 3.865 0 5.819 2.47 5.819 6.071v9.673Zm-24.975-19.553c.468-.587.68-.754 1.529-.754h6.159L106.987 25.8l9.302 10.928h-6.329c-.849 0-1.062-.167-1.529-.754l-6.966-8.416v9.17h-4.757c-.425 0-.637-.21-.637-.628V11.146A3.886 3.886 0 0 1 97.234 8.4a4 4 0 0 1 2.787-1.147h1.444v17l6.923-7.704ZM82.904 11.02 92.97 36.729h-5.733c-.51 0-.722-.21-.892-.67L78.4 14.664l-4.247 11.388h2.76c2.55 0 3.526.963 4.12 2.512l.722 1.885c.17.418 0 .711-.425.711h-9.088l-2.039 5.569h-5.267a.51.51 0 0 1-.468-.207.493.493 0 0 1-.041-.505l9.386-24.16c.977-2.512 2.251-3.35 4.418-3.35h4.672c.34 0 .467.168.467.378 0 .46-.68.586-.68 1.298.02.29.092.573.213.838Zm154.437 8.667V36.1c0 .419.213.628.637.628h4.758V26.303c0-3.433 2.421-5.736 5.478-5.736 1.148 0 1.785.125 2.422.377.424-.837.807-2.052.807-2.973 0-1.256-.679-2.428-2.973-2.428-2.167 0-4.503 1.423-5.734 4.396v-4.145h-1.443c-2.381 0-3.952 1.55-3.952 3.894Zm-9.939 0a3.882 3.882 0 0 1 1.162-2.748 4.001 4.001 0 0 1 2.788-1.146h1.445V36.73h-4.758c-.424 0-.637-.21-.637-.628V19.688Zm-85.543 13.315c0 2.763 4.926 4.187 8.876 4.187 5.225 0 9.514-2.429 9.514-6.783 0-3.224-1.655-5.108-5.649-6.071l-4.502-1.09c-1.146-.292-1.783-.753-1.783-1.8 0-1.004 1.061-1.632 3.1-1.632a12.48 12.48 0 0 1 6.753 2.051c.849-.836 1.402-2.051 1.402-2.805 0-2.345-3.908-3.726-8.197-3.726-4.587 0-8.793 2.26-8.793 6.615 0 3.265 1.657 5.318 5.394 6.155l4.589 1.047c1.188.251 1.869.754 1.869 1.717 0 1.214-1.02 1.842-3.483 1.842-3.187 0-6.075-1.424-7.774-2.554-.807.837-1.316 1.8-1.316 2.847Zm88.304-26.88a3.398 3.398 0 0 0-1.3.236 3.346 3.346 0 0 0-1.842 1.794c-.17.404-.258.839-.257 1.277a3.238 3.238 0 0 0 .967 2.397c.318.314.698.56 1.116.724a3.35 3.35 0 0 0 1.316.229c1.911 0 3.441-1.382 3.441-3.35a3.326 3.326 0 0 0-1.021-2.361 3.403 3.403 0 0 0-2.42-.947Z"/>
      <path fill="#FF6300" d="m.379 40.986 15.6-26.11c.258-.423.429-.592.686-.592.3 0 .429.211.643.55 2.015 3.506 3 6.928 3 10.604 0 9.802-7.843 16.604-19.072 16.604-.215 0-1.029 0-1.029-.549a.805.805 0 0 1 .172-.507ZM36.18 16.807 49.854 40.89c.343.592.128 1.099-.729 1.099-10.03 0-14.7-3.718-18.472-10.352l-10.544-18.59c-.643-1.098-.857-1.858-.857-2.492 0-.718.3-1.563 1.157-3.084l1.286-2.324C23.58 1.725 25.637.204 30.48.204h3.429c.514 0 .557.38.3.676-.9 1.056-1.714 2.535-1.714 5.028 0 2.534.942 6.04 3.686 10.9Z"/>
    </g>
  </mask>
  <g mask="url(#alska-mask)">
    <path fill="#fff" d="M-9.245-36.026h270.201V64.686H-9.245z"/>
  </g>
  <defs>
    <clipPath id="alska-clip">
      <path fill="#fff" d="M0 0h251.71v64.685H0z"/>
    </clipPath>
  </defs>
</svg>
