<svg width="252" height="55" viewBox="0 0 252 55" fill="none" xmlns="http://www.w3.org/2000/svg">
<mask id="mask0_199_2531" style="mask-type:alpha" maskUnits="userSpaceOnUse" x="0" y="0" width="252" height="55">
<g clip-path="url(#clip0_199_2531)">
<path d="M90.7563 42.936C90.0409 43.8346 89.1757 44.6414 88.1602 45.3556C87.2833 45.9549 86.1988 46.5083 84.9064 47.015C83.6143 47.522 82.1026 47.7758 80.3719 47.7758C78.5027 47.7758 76.7661 47.4414 75.1623 46.7731C73.5588 46.1045 72.1681 45.2003 70.9915 44.0592C69.8145 42.9186 68.8915 41.5819 68.2223 40.0491C67.5529 38.5168 67.2185 36.886 67.2185 35.1578C67.2185 33.4292 67.5529 31.7986 68.2223 30.2661C68.8915 28.7335 69.8145 27.3967 70.9915 26.2559C72.1681 25.1151 73.5588 24.2106 75.1623 23.5423C76.7661 22.874 78.5027 22.5396 80.3719 22.5396C82.0564 22.5396 83.5392 22.7931 84.8198 23.3003C86.1006 23.8071 87.168 24.3605 88.0219 24.9594C89.014 25.6742 89.8678 26.4808 90.5832 27.3794L87.1219 30.8363C86.6142 30.1912 86.0255 29.6149 85.3565 29.1079C84.7795 28.6699 84.0757 28.2724 83.2452 27.9153C82.4142 27.5582 81.4564 27.3794 80.3719 27.3794C79.2874 27.3794 78.2719 27.581 77.3259 27.9846C76.3796 28.3878 75.5547 28.9409 74.8509 29.6437C74.1472 30.3466 73.5933 31.1704 73.1893 32.1155C72.7855 33.0605 72.5837 34.0745 72.5837 35.1578C72.5837 36.2406 72.7855 37.2549 73.1893 38.1997C73.5933 39.1449 74.1472 39.9685 74.8509 40.6714C75.5547 41.3744 76.3796 41.9276 77.3259 42.3308C78.2719 42.7342 79.2874 42.936 80.3719 42.936C81.5026 42.936 82.495 42.7571 83.3489 42.4001C84.2026 42.0428 84.9296 41.6453 85.5296 41.2074C86.2218 40.7002 86.8102 40.1241 87.2947 39.4788L90.7563 42.936Z" fill="#4C35BC"/>
<path d="M91.5715 30.2866H96.2443V39.7935C96.2443 40.8303 96.5214 41.6371 97.0751 42.213C97.629 42.7894 98.3903 43.0774 99.3597 43.0774C100.398 43.0774 101.264 42.726 101.956 42.023C102.648 41.3199 102.994 40.404 102.994 39.2745V30.2866H107.667V47.2256H102.994V44.8058H102.821C102.452 45.3129 102.025 45.7738 101.54 46.1886C101.125 46.5344 100.6 46.8513 99.9654 47.1393C99.3308 47.4274 98.6096 47.5715 97.8021 47.5715C96.9251 47.5715 96.1117 47.4042 95.3617 47.0702C94.6117 46.7361 93.9541 46.2636 93.3886 45.653C92.8234 45.0421 92.3791 44.2989 92.056 43.4229C91.733 42.5475 91.5715 41.5678 91.5715 40.4846V30.2866Z" fill="#4C35BC"/>
<path d="M118.437 43.2705C119.037 43.2705 119.603 43.155 120.133 42.9247C120.664 42.6944 121.125 42.3831 121.518 41.9913C121.91 41.5997 122.216 41.1269 122.435 40.5741C122.654 40.0207 122.764 39.4217 122.764 38.7764C122.764 38.131 122.654 37.5317 122.435 36.9788C122.216 36.4254 121.91 35.9532 121.518 35.5612C121.125 35.1695 120.664 34.8585 120.133 34.628C119.603 34.3974 119.037 34.2822 118.437 34.2822C117.837 34.2822 117.272 34.3974 116.741 34.628C116.21 34.8585 115.749 35.1695 115.357 35.5612C114.964 35.9532 114.659 36.4254 114.439 36.9788C114.22 37.5317 114.111 38.131 114.111 38.7764C114.111 39.4217 114.22 40.0207 114.439 40.5741C114.659 41.1269 114.964 41.5997 115.357 41.9913C115.749 42.3831 116.21 42.6944 116.741 42.9247C117.272 43.155 117.837 43.2705 118.437 43.2705ZM122.591 44.826H122.418C122.072 45.3331 121.633 45.794 121.103 46.209C120.641 46.5544 120.076 46.8716 119.407 47.1594C118.737 47.4477 117.953 47.5914 117.053 47.5914C116.061 47.5914 115.103 47.3784 114.18 46.9519C113.257 46.5256 112.443 45.9207 111.739 45.1373C111.035 44.3538 110.476 43.4201 110.061 42.337C109.645 41.2537 109.438 40.0669 109.438 38.7764C109.438 37.4857 109.645 36.2989 110.061 35.2156C110.476 34.1323 111.035 33.2048 111.739 32.4327C112.443 31.6608 113.257 31.0559 114.18 30.6179C115.103 30.18 116.061 29.961 117.053 29.961C117.953 29.961 118.737 30.105 119.407 30.3933C120.076 30.6813 120.641 30.9982 121.103 31.3437C121.633 31.7585 122.072 32.2197 122.418 32.7266H122.591V23.0472H127.263V47.246H122.591V44.826Z" fill="#4C35BC"/>
<path d="M138.148 43.2705C138.748 43.2705 139.313 43.155 139.845 42.9247C140.375 42.6944 140.837 42.3831 141.229 41.9913C141.621 41.5997 141.926 41.1269 142.146 40.5741C142.365 40.0207 142.475 39.4217 142.475 38.7764C142.475 38.131 142.365 37.5317 142.146 36.9788C141.926 36.4254 141.621 35.9532 141.229 35.5612C140.837 35.1695 140.375 34.8585 139.845 34.628C139.313 34.3974 138.748 34.2822 138.148 34.2822C137.548 34.2822 136.982 34.3974 136.452 34.628C135.921 34.8585 135.459 35.1695 135.067 35.5612C134.675 35.9532 134.369 36.4254 134.15 36.9788C133.931 37.5317 133.821 38.131 133.821 38.7764C133.821 39.4217 133.931 40.0207 134.15 40.5741C134.369 41.1269 134.675 41.5997 135.067 41.9913C135.459 42.3831 135.921 42.6944 136.452 42.9247C136.982 43.155 137.548 43.2705 138.148 43.2705ZM142.302 44.826H142.129C141.782 45.3331 141.345 45.794 140.813 46.209C140.352 46.5544 139.786 46.8716 139.118 47.1594C138.448 47.4477 137.663 47.5914 136.764 47.5914C135.771 47.5914 134.814 47.3784 133.891 46.9519C132.967 46.5256 132.154 45.9207 131.45 45.1373C130.746 44.3538 130.187 43.4201 129.771 42.337C129.356 41.2537 129.148 40.0669 129.148 38.7764C129.148 37.4857 129.356 36.2989 129.771 35.2156C130.187 34.1323 130.746 33.2048 131.45 32.4327C132.154 31.6608 132.967 31.0559 133.891 30.6179C134.814 30.18 135.771 29.961 136.764 29.961C137.663 29.961 138.448 30.105 139.118 30.3933C139.786 30.6813 140.352 30.9982 140.813 31.3437C141.343 31.7585 141.782 32.2197 142.129 32.7266H142.302V23.0472H146.975V47.246H142.302V44.826Z" fill="#4C35BC"/>
<path d="M154.803 23.0472H150.13V47.2462H154.803V23.0472Z" fill="#4C35BC"/>
<path d="M156.666 49.646C156.827 49.715 157.012 49.7727 157.219 49.8188C157.611 49.934 158.062 49.9915 158.569 49.9915C159.353 49.9915 159.977 49.7956 160.438 49.404C160.9 49.0122 161.258 48.5165 161.512 47.9175L161.858 47.0532L155.281 30.2866H160.3L164.281 41.5219H164.453L168.261 30.2866H173.281L166.358 48.609C165.642 50.5214 164.76 51.9793 163.709 52.982C162.66 53.9844 161.351 54.4858 159.781 54.4858C159.342 54.4858 158.933 54.4626 158.552 54.4165C158.171 54.3705 157.842 54.3127 157.566 54.2437C157.242 54.1514 156.943 54.0594 156.666 53.967V49.646Z" fill="#4C35BC"/>
<path d="M174.482 23.0472H179.156L190.925 38.0851V23.0472H196.117V47.246H191.444L179.675 32.2083V47.246H174.482V23.0472Z" fill="#FA368B"/>
<path d="M211.169 37.1186C210.915 36.335 210.459 35.6492 209.802 35.0617C209.145 34.474 208.331 34.18 207.361 34.18C206.393 34.18 205.579 34.474 204.921 35.0617C204.264 35.6492 203.808 36.335 203.554 37.1186H211.169ZM214.977 44.8967C214.469 45.4039 213.846 45.8648 213.108 46.2797C212.485 46.6254 211.724 46.9423 210.823 47.2303C209.923 47.5184 208.885 47.6624 207.707 47.6624C206.462 47.6624 205.291 47.4318 204.194 46.9711C203.098 46.5102 202.14 45.8764 201.322 45.0698C200.502 44.263 199.862 43.3298 199.4 42.2696C198.939 41.2095 198.708 40.0684 198.708 38.847C198.708 37.6487 198.939 36.5136 199.4 35.4419C199.862 34.3701 200.496 33.4313 201.304 32.6247C202.112 31.818 203.047 31.1842 204.108 30.7233C205.17 30.2622 206.312 30.0319 207.535 30.0319C208.711 30.0319 209.813 30.2566 210.841 30.7061C211.868 31.1554 212.762 31.7603 213.523 32.5209C214.284 33.2814 214.89 34.1743 215.341 35.1999C215.79 36.2256 216.015 37.326 216.015 38.5015C216.015 38.824 216.004 39.1064 215.981 39.3483C215.958 39.5905 215.934 39.8036 215.911 39.9881C215.888 40.2183 215.865 40.4144 215.843 40.5756H203.554C203.808 41.3592 204.299 42.0449 205.025 42.6324C205.753 43.22 206.762 43.514 208.054 43.514C208.792 43.514 209.438 43.4218 209.993 43.2376C210.546 43.0531 211.019 42.8341 211.411 42.5806C211.85 42.3042 212.231 41.9813 212.553 41.6126L214.977 44.8967Z" fill="#FA368B"/>
<path d="M218.835 41.6126C219.18 41.9816 219.585 42.3042 220.046 42.5809C220.438 42.8341 220.911 43.0531 221.465 43.2376C222.019 43.4219 222.642 43.514 223.335 43.514C224.119 43.514 224.661 43.3988 224.961 43.1684C225.261 42.9379 225.412 42.6496 225.412 42.3042C225.412 41.9815 225.198 41.7108 224.771 41.4918C224.344 41.2728 223.808 41.0595 223.161 40.8521C222.515 40.6448 221.822 40.4028 221.085 40.1261C220.346 39.8496 219.654 39.5039 219.008 39.0892C218.362 38.6741 217.825 38.1558 217.398 37.5335C216.972 36.9114 216.758 36.1391 216.758 35.2174C216.758 34.526 216.908 33.869 217.207 33.2469C217.508 32.6247 217.94 32.0716 218.506 31.5875C219.071 31.1034 219.775 30.7231 220.617 30.4466C221.46 30.1702 222.424 30.0319 223.508 30.0319C224.592 30.0319 225.545 30.1702 226.363 30.4466C227.183 30.7231 227.869 31.023 228.423 31.3455C229.069 31.7371 229.622 32.1636 230.084 32.6247L227.315 35.563C227.039 35.3095 226.704 35.0789 226.312 34.8715C225.988 34.6872 225.59 34.526 225.117 34.3877C224.644 34.2493 224.108 34.1803 223.508 34.1803C222.907 34.1803 222.469 34.2897 222.193 34.5088C221.915 34.7274 221.777 34.9637 221.777 35.2174C221.777 35.54 221.99 35.8109 222.417 36.0298C222.844 36.2488 223.38 36.4618 224.026 36.6693C224.672 36.8767 225.365 37.1188 226.104 37.3952C226.842 37.6717 227.535 38.0174 228.181 38.4322C228.827 38.847 229.363 39.3657 229.79 39.9881C230.217 40.6102 230.431 41.3821 230.431 42.3042C230.431 43.0415 230.281 43.7329 229.98 44.3783C229.681 45.0237 229.23 45.5881 228.63 46.0723C228.031 46.5563 227.293 46.9423 226.416 47.2303C225.539 47.5184 224.511 47.6625 223.335 47.6625C222.157 47.6625 221.119 47.501 220.219 47.1785C219.319 46.8557 218.557 46.4986 217.934 46.1067C217.196 45.6688 216.573 45.1502 216.065 44.5511L218.835 41.6126Z" fill="#FA368B"/>
<path d="M233.187 34.9673H230.244V30.6461H231.801C233.071 30.6461 233.706 29.9548 233.706 28.5719V25.4605H237.859V30.6461H241.667V34.9673H237.859V40.6713C237.859 41.4549 238.061 42.054 238.465 42.4688C238.868 42.8838 239.417 43.0912 240.109 43.0912C240.616 43.0912 241.067 43.0334 241.459 42.9184C241.667 42.8722 241.851 42.8145 242.013 42.7454V47.0667C241.737 47.159 241.436 47.2509 241.114 47.3432C240.836 47.4124 240.508 47.4699 240.127 47.516C239.745 47.5621 239.336 47.5853 238.898 47.5853C237.167 47.5853 235.783 47.0494 234.744 45.9777C233.706 44.906 233.187 43.3677 233.187 41.3626V34.9673Z" fill="#FA368B"/>
<path d="M243.025 44.8628C243.025 44.0794 243.29 43.4224 243.821 42.8925C244.352 42.3622 245.009 42.0974 245.793 42.0974C246.579 42.0974 247.236 42.3622 247.768 42.8925C248.298 43.4224 248.563 44.0794 248.563 44.8628C248.563 45.6465 248.298 46.3035 247.768 46.8334C247.236 47.3636 246.579 47.6284 245.793 47.6284C245.009 47.6284 244.352 47.3636 243.821 46.8334C243.29 46.3035 243.025 45.6465 243.025 44.8628Z" fill="#4C35BC"/>
<path d="M52.7114 21.1921C52.7114 21.1921 55.934 24.5278 61.7497 25.8583C65.271 20.3486 72.4709 17.2732 80.1943 16.1466C71.6413 15.57 68.2504 16.6991 66.4758 16.89C64.4551 17.1073 58.7442 12.6892 52.7114 21.1921Z" fill="#FA368B"/>
<path d="M31.6956 27.3657C31.6956 27.3657 28.8076 30.9691 26.9075 34.8703C28.2362 32.857 29.8614 30.9854 33.809 28.9442L31.6956 27.3657Z" fill="#4C35BC"/>
<path d="M23.9079 13.0326C25.1228 14.1956 25.9161 15.2012 26.6557 16.28C23.2092 14.5509 17.1956 14.6365 13.3645 15.1547C15.4985 14.1608 20.3759 12.8449 23.9079 13.0326Z" fill="#4C35BC"/>
<path d="M45.5835 12.3213C45.5835 12.3213 47.6469 13.6587 48.5766 16.2667C50.3609 12.7262 57.152 9.80221 61.7417 8.64716C56.5465 8.82552 54.5707 9.71531 53.5116 9.93981C52.3063 10.1952 47.5015 8.49406 45.5835 12.3213Z" fill="#4C35BC"/>
<path d="M20.877 47.8115C20.877 47.8115 31.1758 38.4678 42.3801 38.4678C54.9806 38.4678 58.6211 32.4115 61.5204 26.5006C61.5204 26.5006 51.8059 25.204 47.3991 14.9605C47.3991 14.9605 36.8924 0.32988 8.50238 1.24487C8.50238 1.24487 24.6115 10.6854 28.5344 17.0347C32.5553 23.5425 42.9543 30.6175 42.5144 30.4007C33.4079 25.9239 27.2141 17.4169 27.0043 16.8704C26.7948 16.3239 18.1585 13.8054 3.06396 18.8783C3.06396 18.8783 19.283 15.7426 37.778 31.2045C37.778 31.2045 35.908 32.0435 34.5674 32.9688C26.2768 38.6899 20.856 47.8167 20.877 47.8115Z" fill="#FA368B"/>
</g>
</mask>
<g mask="url(#mask0_199_2531)">
<rect x="3.48096" y="-8.55908" width="244.748" height="72.0892" fill="white"/>
</g>
<defs>
<clipPath id="clip0_199_2531">
<rect width="251.71" height="54.9711" fill="white"/>
</clipPath>
</defs>
</svg>
