<svg width="252" height="55" viewBox="0 0 252 55" fill="none" xmlns="http://www.w3.org/2000/svg">
<path d="M90.7563 42.936C90.0409 43.8346 89.1757 44.6415 88.1602 45.3556C87.2833 45.9549 86.1988 46.5083 84.9064 47.015C83.6143 47.5221 82.1026 47.7758 80.3719 47.7758C78.5027 47.7758 76.7661 47.4415 75.1623 46.7732C73.5588 46.1046 72.1681 45.2004 70.9915 44.0593C69.8145 42.9187 68.8915 41.5819 68.2223 40.0492C67.5529 38.5169 67.2185 36.886 67.2185 35.1579C67.2185 33.4292 67.5529 31.7986 68.2223 30.2662C68.8915 28.7336 69.8145 27.3968 70.9915 26.256C72.1681 25.1151 73.5588 24.2107 75.1623 23.5423C76.7661 22.874 78.5027 22.5397 80.3719 22.5397C82.0564 22.5397 83.5392 22.7932 84.8198 23.3004C86.1006 23.8072 87.168 24.3606 88.0219 24.9595C89.014 25.6742 89.8678 26.4809 90.5832 27.3795L87.1219 30.8364C86.6142 30.1913 86.0255 29.6149 85.3565 29.108C84.7795 28.6699 84.0757 28.2724 83.2452 27.9154C82.4142 27.5583 81.4564 27.3795 80.3719 27.3795C79.2874 27.3795 78.2719 27.581 77.3259 27.9846C76.3796 28.3879 75.5547 28.941 74.8509 29.6438C74.1472 30.3467 73.5933 31.1705 73.1893 32.1155C72.7855 33.0605 72.5837 34.0746 72.5837 35.1579C72.5837 36.2407 72.7855 37.255 73.1893 38.1997C73.5933 39.145 74.1472 39.9686 74.8509 40.6715C75.5547 41.3745 76.3796 41.9276 77.3259 42.3309C78.2719 42.7342 79.2874 42.936 80.3719 42.936C81.5026 42.936 82.495 42.7572 83.3489 42.4001C84.2026 42.0428 84.9296 41.6453 85.5296 41.2075C86.2218 40.7003 86.8102 40.1242 87.2947 39.4788L90.7563 42.936Z" fill="#4C35BC"/>
<path d="M91.5715 30.2867H96.2443V39.7936C96.2443 40.8305 96.5214 41.6372 97.0751 42.2132C97.629 42.7895 98.3903 43.0776 99.3597 43.0776C100.398 43.0776 101.264 42.7261 101.956 42.0231C102.648 41.3201 102.994 40.4041 102.994 39.2746V30.2867H107.667V47.2257H102.994V44.806H102.821C102.452 45.313 102.025 45.774 101.54 46.1887C101.125 46.5345 100.6 46.8514 99.9654 47.1394C99.3308 47.4275 98.6096 47.5716 97.8021 47.5716C96.9251 47.5716 96.1117 47.4043 95.3617 47.0703C94.6117 46.7362 93.9541 46.2637 93.3886 45.6531C92.8234 45.0422 92.3791 44.299 92.056 43.423C91.733 42.5476 91.5715 41.5679 91.5715 40.4847V30.2867Z" fill="#4C35BC"/>
<path d="M118.437 43.2705C119.037 43.2705 119.603 43.1551 120.133 42.9248C120.664 42.6944 121.125 42.3832 121.518 41.9914C121.91 41.5998 122.216 41.127 122.435 40.5741C122.654 40.0207 122.764 39.4218 122.764 38.7764C122.764 38.1311 122.654 37.5318 122.435 36.9789C122.216 36.4255 121.91 35.9532 121.518 35.5612C121.125 35.1696 120.664 34.8586 120.133 34.6281C119.603 34.3974 119.037 34.2822 118.437 34.2822C117.837 34.2822 117.272 34.3974 116.741 34.6281C116.21 34.8586 115.749 35.1696 115.357 35.5612C114.964 35.9532 114.659 36.4255 114.439 36.9789C114.22 37.5318 114.111 38.1311 114.111 38.7764C114.111 39.4218 114.22 40.0207 114.439 40.5741C114.659 41.127 114.964 41.5998 115.357 41.9914C115.749 42.3832 116.21 42.6944 116.741 42.9248C117.272 43.1551 117.837 43.2705 118.437 43.2705ZM122.591 44.8261H122.418C122.072 45.3332 121.633 45.7941 121.103 46.209C120.641 46.5545 120.076 46.8716 119.407 47.1594C118.737 47.4477 117.953 47.5915 117.053 47.5915C116.061 47.5915 115.103 47.3784 114.18 46.952C113.257 46.5257 112.443 45.9207 111.739 45.1373C111.035 44.3538 110.476 43.4202 110.061 42.3371C109.645 41.2538 109.438 40.0669 109.438 38.7764C109.438 37.4857 109.645 36.299 110.061 35.2157C110.476 34.1324 111.035 33.2048 111.739 32.4328C112.443 31.6609 113.257 31.0559 114.18 30.618C115.103 30.1801 116.061 29.961 117.053 29.961C117.953 29.961 118.737 30.105 119.407 30.3933C120.076 30.6814 120.641 30.9983 121.103 31.3437C121.633 31.7586 122.072 32.2197 122.418 32.7267H122.591V23.0472H127.263V47.246H122.591V44.8261Z" fill="#4C35BC"/>
<path d="M138.148 43.2705C138.748 43.2705 139.313 43.1551 139.845 42.9248C140.375 42.6944 140.837 42.3832 141.229 41.9914C141.621 41.5998 141.926 41.127 142.146 40.5741C142.365 40.0207 142.475 39.4218 142.475 38.7764C142.475 38.1311 142.365 37.5318 142.146 36.9789C141.926 36.4255 141.621 35.9532 141.229 35.5612C140.837 35.1696 140.375 34.8586 139.845 34.6281C139.313 34.3974 138.748 34.2822 138.148 34.2822C137.548 34.2822 136.982 34.3974 136.452 34.6281C135.921 34.8586 135.459 35.1696 135.067 35.5612C134.675 35.9532 134.369 36.4255 134.15 36.9789C133.931 37.5318 133.821 38.1311 133.821 38.7764C133.821 39.4218 133.931 40.0207 134.15 40.5741C134.369 41.127 134.675 41.5998 135.067 41.9914C135.459 42.3832 135.921 42.6944 136.452 42.9248C136.982 43.1551 137.548 43.2705 138.148 43.2705ZM142.302 44.8261H142.129C141.782 45.3332 141.345 45.7941 140.813 46.209C140.352 46.5545 139.786 46.8716 139.118 47.1594C138.448 47.4477 137.663 47.5915 136.764 47.5915C135.771 47.5915 134.814 47.3784 133.891 46.952C132.967 46.5257 132.154 45.9207 131.45 45.1373C130.746 44.3538 130.187 43.4202 129.771 42.3371C129.356 41.2538 129.148 40.0669 129.148 38.7764C129.148 37.4857 129.356 36.299 129.771 35.2157C130.187 34.1324 130.746 33.2048 131.45 32.4328C132.154 31.6609 132.967 31.0559 133.891 30.618C134.814 30.1801 135.771 29.961 136.764 29.961C137.663 29.961 138.448 30.105 139.118 30.3933C139.786 30.6814 140.352 30.9983 140.813 31.3437C141.343 31.7586 141.782 32.2197 142.129 32.7267H142.302V23.0472H146.975V47.246H142.302V44.8261Z" fill="#4C35BC"/>
<path d="M154.803 23.0472H150.13V47.2463H154.803V23.0472Z" fill="#4C35BC"/>
<path d="M156.666 49.6461C156.827 49.7151 157.012 49.7728 157.219 49.819C157.611 49.9342 158.062 49.9916 158.569 49.9916C159.353 49.9916 159.977 49.7958 160.438 49.4041C160.9 49.0124 161.258 48.5166 161.512 47.9176L161.858 47.0533L155.281 30.2867H160.3L164.281 41.522H164.453L168.261 30.2867H173.281L166.358 48.6091C165.642 50.5215 164.76 51.9795 163.709 52.9821C162.66 53.9846 161.351 54.4859 159.781 54.4859C159.342 54.4859 158.933 54.4627 158.552 54.4166C158.171 54.3706 157.842 54.3128 157.566 54.2438C157.242 54.1516 156.943 54.0596 156.666 53.9671V49.6461Z" fill="#4C35BC"/>
<path d="M174.482 23.0472H179.156L190.925 38.0852V23.0472H196.117V47.246H191.444L179.675 32.2084V47.246H174.482V23.0472Z" fill="#FA368B"/>
<path d="M211.169 37.1186C210.915 36.3351 210.459 35.6493 209.802 35.0617C209.145 34.474 208.331 34.1801 207.361 34.1801C206.393 34.1801 205.579 34.474 204.921 35.0617C204.264 35.6493 203.808 36.3351 203.554 37.1186H211.169ZM214.977 44.8968C214.469 45.404 213.846 45.8649 213.108 46.2797C212.485 46.6255 211.724 46.9423 210.823 47.2304C209.923 47.5184 208.885 47.6625 207.707 47.6625C206.462 47.6625 205.291 47.4318 204.194 46.9712C203.098 46.5103 202.14 45.8765 201.322 45.0699C200.502 44.263 199.862 43.3299 199.4 42.2697C198.939 41.2096 198.708 40.0685 198.708 38.847C198.708 37.6488 198.939 36.5137 199.4 35.442C199.862 34.3702 200.496 33.4314 201.304 32.6248C202.112 31.8181 203.047 31.1843 204.108 30.7234C205.17 30.2623 206.312 30.032 207.535 30.032C208.711 30.032 209.813 30.2566 210.841 30.7062C211.868 31.1555 212.762 31.7604 213.523 32.521C214.284 33.2815 214.89 34.1744 215.341 35.2C215.79 36.2256 216.015 37.326 216.015 38.5016C216.015 38.8241 216.004 39.1065 215.981 39.3484C215.958 39.5906 215.934 39.8037 215.911 39.9881C215.888 40.2184 215.865 40.4144 215.843 40.5757H203.554C203.808 41.3592 204.299 42.045 205.025 42.6325C205.753 43.22 206.762 43.5141 208.054 43.5141C208.792 43.5141 209.438 43.4219 209.993 43.2376C210.546 43.0532 211.019 42.8342 211.411 42.5807C211.85 42.3042 212.231 41.9814 212.553 41.6127L214.977 44.8968Z" fill="#FA368B"/>
<path d="M218.835 41.6127C219.18 41.9816 219.585 42.3042 220.046 42.5809C220.438 42.8342 220.911 43.0532 221.465 43.2376C222.019 43.422 222.642 43.5141 223.335 43.5141C224.119 43.5141 224.661 43.3989 224.961 43.1685C225.261 42.938 225.412 42.6497 225.412 42.3042C225.412 41.9816 225.198 41.7109 224.771 41.4919C224.344 41.2728 223.808 41.0596 223.161 40.8521C222.515 40.6448 221.822 40.4028 221.085 40.1262C220.346 39.8497 219.654 39.504 219.008 39.0893C218.362 38.6742 217.825 38.1559 217.398 37.5336C216.972 36.9114 216.758 36.1392 216.758 35.2175C216.758 34.5261 216.908 33.8691 217.207 33.2469C217.508 32.6248 217.94 32.0717 218.506 31.5875C219.071 31.1034 219.775 30.7232 220.617 30.4467C221.46 30.1703 222.424 30.032 223.508 30.032C224.592 30.032 225.545 30.1703 226.363 30.4467C227.183 30.7232 227.869 31.0231 228.423 31.3455C229.069 31.7372 229.622 32.1636 230.084 32.6248L227.315 35.5631C227.039 35.3096 226.704 35.0789 226.312 34.8715C225.988 34.6873 225.59 34.5261 225.117 34.3878C224.644 34.2494 224.108 34.1804 223.508 34.1804C222.907 34.1804 222.469 34.2898 222.193 34.5088C221.915 34.7275 221.777 34.9637 221.777 35.2175C221.777 35.5401 221.99 35.8109 222.417 36.0298C222.844 36.2489 223.38 36.4619 224.026 36.6693C224.672 36.8767 225.365 37.1189 226.104 37.3953C226.842 37.6718 227.535 38.0175 228.181 38.4323C228.827 38.847 229.363 39.3657 229.79 39.9881C230.217 40.6103 230.431 41.3822 230.431 42.3042C230.431 43.0416 230.281 43.733 229.98 44.3784C229.681 45.0237 229.23 45.5882 228.63 46.0723C228.031 46.5563 227.293 46.9423 226.416 47.2304C225.539 47.5184 224.511 47.6626 223.335 47.6626C222.157 47.6626 221.119 47.5011 220.219 47.1786C219.319 46.8557 218.557 46.4987 217.934 46.1068C217.196 45.6688 216.573 45.1503 216.065 44.5512L218.835 41.6127Z" fill="#FA368B"/>
<path d="M233.187 34.9674H230.244V30.6462H231.801C233.071 30.6462 233.706 29.9549 233.706 28.5719V25.4606H237.859V30.6462H241.667V34.9674H237.859V40.6713C237.859 41.455 238.061 42.054 238.465 42.4689C238.868 42.8839 239.417 43.0913 240.109 43.0913C240.616 43.0913 241.067 43.0335 241.459 42.9184C241.667 42.8723 241.851 42.8146 242.013 42.7455V47.0668C241.737 47.159 241.436 47.251 241.114 47.3432C240.836 47.4125 240.508 47.4699 240.127 47.5161C239.745 47.5622 239.336 47.5854 238.898 47.5854C237.167 47.5854 235.783 47.0495 234.744 45.9778C233.706 44.9061 233.187 43.3677 233.187 41.3626V34.9674Z" fill="#FA368B"/>
<path d="M243.025 44.8628C243.025 44.0794 243.29 43.4225 243.821 42.8925C244.352 42.3623 245.009 42.0974 245.793 42.0974C246.579 42.0974 247.236 42.3623 247.768 42.8925C248.298 43.4225 248.563 44.0794 248.563 44.8628C248.563 45.6466 248.298 46.3036 247.768 46.8335C247.236 47.3637 246.579 47.6285 245.793 47.6285C245.009 47.6285 244.352 47.3637 243.821 46.8335C243.29 46.3036 243.025 45.6466 243.025 44.8628Z" fill="#4C35BC"/>
<path d="M52.7114 21.1922C52.7114 21.1922 55.934 24.5278 61.7497 25.8584C65.271 20.3487 72.4709 17.2732 80.1943 16.1467C71.6413 15.5701 68.2504 16.6992 66.4758 16.89C64.4551 17.1073 58.7442 12.6892 52.7114 21.1922Z" fill="#FA368B"/>
<path d="M31.6956 27.3658C31.6956 27.3658 28.8076 30.9693 26.9075 34.8704C28.2362 32.8571 29.8614 30.9855 33.809 28.9444L31.6956 27.3658Z" fill="#4C35BC"/>
<path d="M23.9079 13.0326C25.1228 14.1956 25.9161 15.2012 26.6557 16.28C23.2092 14.5509 17.1956 14.6365 13.3645 15.1547C15.4985 14.1608 20.3759 12.8449 23.9079 13.0326Z" fill="#4C35BC"/>
<path d="M45.5835 12.3214C45.5835 12.3214 47.6469 13.6588 48.5766 16.2667C50.3609 12.7262 57.152 9.80227 61.7417 8.64722C56.5465 8.82558 54.5707 9.71537 53.5116 9.93987C52.3063 10.1953 47.5015 8.49412 45.5835 12.3214Z" fill="#4C35BC"/>
<path d="M20.877 47.8115C20.877 47.8115 31.1758 38.4679 42.3801 38.4679C54.9806 38.4679 58.6211 32.4115 61.5204 26.5007C61.5204 26.5007 51.8059 25.2041 47.3991 14.9605C47.3991 14.9605 36.8924 0.329941 8.50238 1.24493C8.50238 1.24493 24.6115 10.6854 28.5344 17.0348C32.5553 23.5426 42.9543 30.6175 42.5144 30.4008C33.4079 25.924 27.2141 17.417 27.0043 16.8705C26.7948 16.3239 18.1585 13.8055 3.06396 18.8784C3.06396 18.8784 19.283 15.7427 37.778 31.2046C37.778 31.2046 35.908 32.0436 34.5674 32.9688C26.2768 38.69 20.856 47.8168 20.877 47.8115Z" fill="#FA368B"/>
</svg>
