<svg width="247" height="16" viewBox="0 0 247 16" fill="none" xmlns="http://www.w3.org/2000/svg">
<path d="M-0.000115141 15.62V0.219994H6.73188C8.40388 0.219994 9.87055 0.542661 11.1319 1.18799C12.3932 1.83333 13.3759 2.72799 14.0799 3.87199C14.7839 5.01599 15.1359 6.36533 15.1359 7.91999C15.1359 9.45999 14.7839 10.8093 14.0799 11.968C13.3759 13.112 12.3932 14.0067 11.1319 14.652C9.87055 15.2973 8.40388 15.62 6.73188 15.62H-0.000115141ZM2.85988 13.2H6.59989C7.75855 13.2 8.75589 12.98 9.59189 12.54C10.4426 12.1 11.0952 11.484 11.5499 10.692C12.0192 9.89999 12.2539 8.97599 12.2539 7.91999C12.2539 6.84933 12.0192 5.92533 11.5499 5.14799C11.0952 4.35599 10.4426 3.73999 9.59189 3.3C8.75589 2.85999 7.75855 2.63999 6.59989 2.63999H2.85988V13.2ZM21.9157 6.62199H29.5717V8.97599H21.9157V6.62199ZM22.1357 13.222H30.8257V15.62H19.2757V0.219994H30.5177V2.61799H22.1357V13.222ZM35.1139 15.62V0.219994H42.3299C44.1779 0.219994 45.5859 0.586661 46.5539 1.31999C47.5219 2.03866 48.0059 3.00666 48.0059 4.22399C48.0059 5.04533 47.8153 5.74933 47.4339 6.33599C47.0526 6.90799 46.5393 7.35533 45.8939 7.67799C45.2633 7.98599 44.5739 8.14 43.8259 8.14L44.2219 7.34799C45.0873 7.34799 45.8646 7.50933 46.5539 7.832C47.2433 8.14 47.7859 8.59466 48.1819 9.19599C48.5926 9.79733 48.7979 10.5453 48.7979 11.44C48.7979 12.76 48.2919 13.7867 47.2799 14.52C46.2679 15.2533 44.7646 15.62 42.7699 15.62H35.1139ZM37.9739 13.376H42.5939C43.6646 13.376 44.4859 13.2 45.0579 12.848C45.6299 12.496 45.9159 11.9313 45.9159 11.154C45.9159 10.3913 45.6299 9.83399 45.0579 9.48199C44.4859 9.11533 43.6646 8.93199 42.5939 8.93199H37.7539V6.70999H42.0219C43.0193 6.70999 43.7819 6.53399 44.3099 6.18199C44.8526 5.82999 45.1239 5.30199 45.1239 4.59799C45.1239 3.87933 44.8526 3.34399 44.3099 2.992C43.7819 2.63999 43.0193 2.46399 42.0219 2.46399H37.9739V13.376ZM60.1663 15.84C58.9636 15.84 57.8563 15.642 56.8443 15.246C55.8323 14.85 54.9523 14.3 54.2043 13.596C53.4563 12.8773 52.8769 12.0413 52.4663 11.088C52.0556 10.12 51.8503 9.06399 51.8503 7.91999C51.8503 6.77599 52.0556 5.72733 52.4663 4.77399C52.8769 3.80599 53.4563 2.96999 54.2043 2.26599C54.9523 1.54733 55.8323 0.989995 56.8443 0.593994C57.8563 0.197994 58.9563 -5.72205e-06 60.1443 -5.72205e-06C61.3469 -5.72205e-06 62.4469 0.197994 63.4443 0.593994C64.4563 0.989995 65.3363 1.54733 66.0843 2.26599C66.8323 2.96999 67.4116 3.80599 67.8223 4.77399C68.2329 5.72733 68.4383 6.77599 68.4383 7.91999C68.4383 9.06399 68.2329 10.12 67.8223 11.088C67.4116 12.056 66.8323 12.892 66.0843 13.596C65.3363 14.3 64.4563 14.85 63.4443 15.246C62.4469 15.642 61.3543 15.84 60.1663 15.84ZM60.1443 13.332C60.9216 13.332 61.6403 13.2 62.3003 12.936C62.9603 12.672 63.5323 12.298 64.0163 11.814C64.5003 11.3153 64.8743 10.7433 65.1383 10.098C65.4169 9.43799 65.5563 8.71199 65.5563 7.91999C65.5563 7.12799 65.4169 6.40933 65.1383 5.76399C64.8743 5.10399 64.5003 4.53199 64.0163 4.04799C63.5323 3.54933 62.9603 3.168 62.3003 2.90399C61.6403 2.63999 60.9216 2.50799 60.1443 2.50799C59.3669 2.50799 58.6483 2.63999 57.9883 2.90399C57.3429 3.168 56.7709 3.54933 56.2723 4.04799C55.7883 4.53199 55.4069 5.10399 55.1283 5.76399C54.8643 6.40933 54.7323 7.12799 54.7323 7.91999C54.7323 8.69733 54.8643 9.41599 55.1283 10.076C55.4069 10.736 55.7883 11.3153 56.2723 11.814C56.7563 12.298 57.3283 12.672 57.9883 12.936C58.6483 13.2 59.3669 13.332 60.1443 13.332ZM72.5698 15.62V0.219994H78.9058C80.2698 0.219994 81.4358 0.439994 82.4038 0.879995C83.3865 1.31999 84.1418 1.95066 84.6698 2.77199C85.1978 3.59333 85.4618 4.56866 85.4618 5.69799C85.4618 6.82733 85.1978 7.80266 84.6698 8.62399C84.1418 9.43066 83.3865 10.054 82.4038 10.494C81.4358 10.9193 80.2698 11.132 78.9058 11.132H74.1538L75.4298 9.83399V15.62H72.5698ZM82.6458 15.62L78.7518 10.032H81.8098L85.7258 15.62H82.6458ZM75.4298 10.142L74.1538 8.77799H78.7738C80.0351 8.77799 80.9811 8.50666 81.6118 7.96399C82.2571 7.42133 82.5798 6.66599 82.5798 5.69799C82.5798 4.71533 82.2571 3.95999 81.6118 3.43199C80.9811 2.90399 80.0351 2.63999 78.7738 2.63999H74.1538L75.4298 1.23199V10.142ZM87.5836 15.62L94.5136 0.219994H97.3296L104.282 15.62H101.29L95.3276 1.73799H96.4716L90.5316 15.62H87.5836ZM90.7736 12.056L91.5436 9.812H99.8596L100.63 12.056H90.7736ZM118.164 0.219994H121.024V15.62H118.164V0.219994ZM110.2 15.62H107.34V0.219994H110.2V15.62ZM118.384 9.01999H109.958V6.57799H118.384V9.01999ZM144.255 0.219994H147.115V15.62H144.255V0.219994ZM136.291 15.62H133.431V0.219994H136.291V15.62ZM144.475 9.01999H136.049V6.57799H144.475V9.01999ZM154.981 6.62199H162.637V8.97599H154.981V6.62199ZM155.201 13.222H163.891V15.62H152.341V0.219994H163.583V2.61799H155.201V13.222ZM168.18 15.62V0.219994H170.534L180.192 12.078H179.026V0.219994H181.864V15.62H179.51L169.852 3.76199H171.018V15.62H168.18ZM187.09 15.62V0.219994H189.444L199.102 12.078H197.936V0.219994H200.774V15.62H198.42L188.762 3.76199H189.928V15.62H187.09ZM206.001 15.62V0.219994H208.861V15.62H206.001ZM214.126 15.62V0.219994H216.48L226.138 12.078H224.972V0.219994H227.81V15.62H225.456L215.798 3.76199H216.964V15.62H214.126ZM240.231 15.84C239.028 15.84 237.921 15.6493 236.909 15.268C235.911 14.872 235.039 14.322 234.291 13.618C233.543 12.8993 232.963 12.056 232.553 11.088C232.142 10.12 231.937 9.06399 231.937 7.91999C231.937 6.77599 232.142 5.71999 232.553 4.75199C232.963 3.78399 233.543 2.94799 234.291 2.24399C235.053 1.52533 235.941 0.975328 236.953 0.593994C237.965 0.197994 239.072 -5.72205e-06 240.275 -5.72205e-06C241.58 -5.72205e-06 242.753 0.212661 243.795 0.637994C244.851 1.06333 245.738 1.68666 246.457 2.50799L244.653 4.26799C244.051 3.66666 243.399 3.22666 242.695 2.94799C242.005 2.65466 241.243 2.50799 240.407 2.50799C239.6 2.50799 238.852 2.63999 238.163 2.90399C237.473 3.168 236.879 3.542 236.381 4.02599C235.882 4.50999 235.493 5.08199 235.215 5.74199C234.951 6.40199 234.819 7.12799 234.819 7.91999C234.819 8.69733 234.951 9.41599 235.215 10.076C235.493 10.736 235.882 11.3153 236.381 11.814C236.879 12.298 237.466 12.672 238.141 12.936C238.815 13.2 239.563 13.332 240.385 13.332C241.147 13.332 241.881 13.2147 242.585 12.98C243.303 12.7307 243.985 12.32 244.631 11.748L246.259 13.882C245.452 14.5273 244.513 15.0187 243.443 15.356C242.387 15.6787 241.316 15.84 240.231 15.84ZM243.553 13.508V7.74399H246.259V13.882L243.553 13.508Z" fill="white"/>
</svg>
