<svg width="237" height="35" viewBox="0 0 237 35" fill="none" xmlns="http://www.w3.org/2000/svg">
<path d="M60.0863 7.12542V3.63202H63.0385V7.12542H60.0863ZM60.1944 27.9405V10.1169H62.9304V27.9405H60.1944ZM69.3887 27.9405V10.1169H72.1246V12.8971C72.7855 12.0368 73.6003 11.3007 74.5296 10.7245C75.6323 10.0898 76.8991 9.78017 78.1776 9.83297C79.4165 9.82655 80.636 10.1337 81.7175 10.7245C82.8584 11.3135 83.7961 12.2186 84.4129 13.3264C85.1567 14.6181 85.5236 16.0845 85.4736 17.566V27.9405H82.7376V17.6386C82.7734 16.9315 82.6659 16.2244 82.4213 15.558C82.1767 14.8917 81.7998 14.2791 81.3122 13.7556C80.8444 13.2622 80.2735 12.8729 79.6382 12.6143C79.003 12.3556 78.3182 12.2336 77.6304 12.2565C76.6622 12.2423 75.7071 12.4769 74.8606 12.9367C74.031 13.3942 73.3391 14.057 72.8542 14.8584C72.3553 15.7144 72.1032 16.6867 72.1246 17.6716V27.9405H69.3887ZM93.2897 27.9405V12.4679H89.5674V10.1169H93.2897V3.73768H96.0257V10.1169H100.221V12.4679H96.0257V27.9405H93.2897ZM112.665 28.2245C110.964 28.2636 109.286 27.8432 107.814 27.0094C106.447 26.1959 105.328 25.0399 104.571 23.6613C103.81 22.2308 103.422 20.6381 103.443 19.0254C103.421 17.4166 103.797 15.8263 104.538 14.3896C105.241 13.0168 106.327 11.8673 107.672 11.0745C109.14 10.2565 110.8 9.82637 112.489 9.82637C114.178 9.82637 115.838 10.2565 117.306 11.0745C118.65 11.8673 119.737 13.0168 120.44 14.3896C121.183 15.8256 121.559 17.4163 121.535 19.0254V20.0952H106.254C106.392 21.1143 106.739 22.0958 107.274 22.9811C107.832 23.8357 108.595 24.545 109.496 25.0481C110.482 25.5625 111.588 25.8195 112.705 25.7943C113.844 25.8345 114.971 25.55 115.948 24.9754C116.803 24.4289 117.504 23.682 117.988 22.8028H120.981C120.371 24.3634 119.322 25.7233 117.954 26.7254C116.407 27.7798 114.548 28.3066 112.665 28.2245ZM106.281 17.6056H118.677C118.47 16.1562 117.779 14.8142 116.711 13.7886C115.534 12.8001 114.034 12.2566 112.482 12.2566C110.93 12.2566 109.43 12.8001 108.253 13.7886C107.199 14.8238 106.51 16.1611 106.287 17.6056H106.281ZM126.581 27.9405V2.99146H129.317V27.9471H126.581V27.9405ZM135.768 27.9405V2.99146H138.504V27.9471H135.768V27.9405ZM153.049 28.2245C151.349 28.2636 149.67 27.8432 148.199 27.0094C146.832 26.1959 145.712 25.0399 144.956 23.6613C144.194 22.2308 143.806 20.6381 143.828 19.0254C143.806 17.4166 144.181 15.8263 144.922 14.3896C145.625 13.0168 146.712 11.8673 148.057 11.0745C149.524 10.2565 151.184 9.82637 152.873 9.82637C154.563 9.82637 156.223 10.2565 157.69 11.0745C159.035 11.8673 160.122 13.0168 160.825 14.3896C161.568 15.8256 161.943 17.4163 161.919 19.0254V20.0952H146.638C146.777 21.1143 147.123 22.0958 147.658 22.9811C148.217 23.8357 148.98 24.545 149.881 25.0481C150.867 25.5625 151.972 25.8195 153.09 25.7943C154.229 25.8345 155.355 25.55 156.332 24.9754C157.187 24.4289 157.888 23.682 158.372 22.8028H161.365C160.755 24.3634 159.706 25.7233 158.339 26.7254C156.792 27.7798 154.933 28.3066 153.049 28.2245ZM146.665 17.6056H159.061C158.855 16.1562 158.164 14.8142 157.096 13.7886C155.919 12.8001 154.418 12.2566 152.867 12.2566C151.315 12.2566 149.815 12.8001 148.638 13.7886C147.583 14.8238 146.895 16.1611 146.672 17.6056H146.665ZM174.802 28.2245C173.179 28.2853 171.573 27.8871 170.175 27.0777C168.778 26.2683 167.65 25.0821 166.925 23.6613C166.186 22.2237 165.811 20.634 165.831 19.0254C165.809 17.4166 166.184 15.8263 166.925 14.3896C167.665 12.9806 168.796 11.8047 170.19 10.9973C171.584 10.1899 173.182 9.78401 174.802 9.82636C176.771 9.76883 178.705 10.3441 180.308 11.4641C181.796 12.4992 182.888 13.9917 183.408 15.7037H180.456C180.056 14.6951 179.358 13.826 178.45 13.2075C177.491 12.5475 176.339 12.2092 175.167 12.2433C173.934 12.2224 172.721 12.5429 171.667 13.1679C170.688 13.768 169.894 14.6171 169.37 15.6245C168.829 16.6746 168.554 17.8364 168.567 19.0122C168.557 20.1877 168.832 21.3487 169.37 22.3999C169.908 23.4437 170.739 24.3161 171.765 24.9149C172.792 25.5137 173.972 25.8142 175.167 25.7811C176.34 25.8223 177.494 25.4833 178.45 24.8169C179.358 24.1984 180.056 23.3293 180.456 22.3207H183.408C182.892 24.0344 181.799 25.528 180.308 26.5603C178.706 27.6831 176.771 28.2587 174.802 28.1981V28.2245ZM190.475 27.9405V12.4679H186.752V10.1169H190.475V3.73768H193.211V10.1169H197.406V12.4679H193.211V27.9405H190.475ZM204.006 34.9999L207.323 27.6896L199.885 10.1169H202.912L208.782 24.7311L214.761 10.1169H217.753L206.958 34.9999H204.006ZM219.719 27.9405L226.759 18.7415L220.158 10.1169H223.658L228.36 16.8528L233.028 10.1169H236.527L229.927 18.7415L237 27.9405H233.501L228.36 20.6698L223.178 27.9405H219.713H219.719Z" fill="#4C4B4B"/>
<path d="M43.8528 3.22923C42.6956 2.89125 41.4621 2.89354 40.3062 3.23583C39.724 3.39964 39.1604 3.6209 38.6241 3.89621C37.8585 4.27993 37.1143 4.70317 36.3947 5.16413C32.9089 7.36319 26.7276 13.2538 26.6262 13.3396L25.5116 14.3302L20.3031 7.93111L19.8369 8.14904C17.8442 9.11187 16.2939 10.7711 15.4931 12.7981L15.3243 13.2207C17.155 14.8651 18.6615 17.2887 20.2963 19.1047L20.3436 19.1707C18.067 21.2972 15.7634 23.4302 14.7973 24.2622C12.7909 26.119 10.4409 27.5848 7.87291 28.5811C6.5826 28.8849 5.18421 28.9773 4.12359 28.0396C3.93174 27.8807 3.77389 27.6863 3.65912 27.4676C3.54435 27.2488 3.47491 27.0101 3.4548 26.7651C3.44358 26.6996 3.43905 26.6333 3.44128 26.567C3.44128 26.4943 3.44128 26.4283 3.44804 26.3556C3.44918 26.2938 3.45369 26.2321 3.46155 26.1707C3.52004 25.7569 3.61266 25.3483 3.73853 24.949V24.9226C4.67079 21.6207 7.15682 16.7802 9.48748 14.2707C10.0875 13.5834 10.8024 13.0006 11.602 12.5472C10.6794 10.8064 9.17509 9.42685 7.33922 8.63772C6.78527 9.52262 6.29212 10.3877 5.85976 11.1405C3.8331 14.6472 1.75916 18.6028 0.712052 22.5321C-0.0648328 25.4311 -0.821451 29.3868 2.00911 31.3943C4.05604 32.8538 6.29212 32.6226 8.44037 31.7311C10.6764 30.8066 12.818 29.1424 14.5406 27.8943C14.5406 27.8943 21.8501 21.2245 21.8568 21.2311L23.0863 22.7368L25.694 25.9264L28.0719 28.8387C28.7368 29.6437 29.4837 30.3806 30.3012 31.0377C31.0303 31.6903 31.908 32.1634 32.8616 32.4179C33.4473 32.5437 34.056 32.5233 34.6315 32.3585C37.9755 31.4207 41.6505 24.3943 43.2313 21.3962C45.5079 17.0641 51.1961 5.4481 43.8528 3.23583V3.22923ZM44.0825 8.88206V8.89527C43.9479 9.53532 43.7441 10.1596 43.4745 10.7575C42.245 13.9207 38.3336 21.449 35.1855 22.783C33.1791 23.6415 31.8415 21.8915 30.612 20.5377C29.5987 19.4151 27.4166 16.6349 27.4031 16.6151L27.187 16.3509C30.0175 13.8481 32.6319 10.949 35.7867 8.86885C36.9245 8.10233 38.1513 7.47055 39.4415 6.98677C40.4527 6.66207 41.5375 6.62542 42.5693 6.88111C42.9067 6.95136 43.2184 7.10929 43.4717 7.33825C43.7249 7.56721 43.9103 7.85873 44.0082 8.18206C44.1013 8.40356 44.1271 8.64659 44.0825 8.88206Z" fill="#91C33E"/>
<path d="M13.2639 0C14.4058 2.4294 16.4448 4.34715 18.9723 5.36887C16.5165 6.55478 14.605 8.59776 13.6152 11.0943C12.4732 8.66494 10.4342 6.74719 7.90674 5.72547C10.3625 4.53956 12.274 2.49658 13.2639 0Z" fill="#91C33E"/>
</svg>
