<svg width="200" height="48" viewBox="0 0 200 48" fill="none" xmlns="http://www.w3.org/2000/svg">
<mask id="mask0_689_7987" style="mask-type:alpha" maskUnits="userSpaceOnUse" x="0" y="0" width="200" height="48">
<g clip-path="url(#clip0_689_7987)">
<mask id="mask1_689_7987" style="mask-type:luminance" maskUnits="userSpaceOnUse" x="0" y="0" width="200" height="48">
<path d="M200 0H0V47.0179H200V0Z" fill="white"/>
</mask>
<g mask="url(#mask1_689_7987)">
<path d="M45.2451 13.8023C44.4538 10.7075 42.5725 8.22524 40.0657 6.62501C37.2267 4.80516 33.6188 4.11348 30.1744 4.54091C30.4937 4.51398 30.8069 4.49801 31.1255 4.48783C30.3535 4.53099 29.5846 4.63578 28.8361 4.79169C28.791 4.80115 28.7516 4.81082 28.7121 4.8205C28.4701 4.87275 28.2278 4.93059 28.0023 4.98906C27.8161 5.03787 27.6298 5.09225 27.4488 5.15243C27.3811 5.17221 27.3187 5.19779 27.2565 5.21778C27.2788 5.21863 27.3018 5.20273 27.3298 5.19822C27.2732 5.21842 27.211 5.23841 27.1545 5.25861C26.8266 5.36351 26.5093 5.48557 26.1917 5.61324C26.0841 5.65385 25.9818 5.70027 25.874 5.74648C25.8457 5.75658 25.812 5.76088 25.7837 5.77098C25.8633 5.73488 25.9428 5.69877 26.0223 5.66267C27.3227 5.09169 28.7214 4.72578 30.1461 4.55102C28.8135 4.65102 27.4825 4.85733 26.1866 5.16565C24.9186 5.47505 23.6751 5.86926 22.4722 6.37686C21.7174 6.6947 20.9614 7.04605 20.2476 7.46052C20.065 7.56539 19.8823 7.67024 19.6998 7.76951C19.0832 8.12619 18.4779 8.47771 17.8718 8.85157C17.6831 8.96738 17.5 9.08341 17.3167 9.20501C17.1336 9.32103 16.9445 9.44801 16.7611 9.56962C16.3886 9.82379 16.0213 10.0838 15.6538 10.3493C15.4067 10.53 15.1595 10.7163 14.9179 10.9028C14.4747 11.2493 14.037 11.6016 13.5985 11.9707C13.5181 12.0291 13.4373 12.0988 13.3562 12.174C13.1716 12.329 12.981 12.4951 12.796 12.6614C12.7558 12.6879 12.7156 12.7199 12.6804 12.7632C12.4553 12.956 12.2355 13.1545 12.0212 13.3587C11.7782 13.5787 11.5408 13.7989 11.3203 14.0198C11.1405 14.1918 10.9609 14.3639 10.7866 14.5418C10.2995 15.0153 9.83443 15.4952 9.3799 15.9923C9.2519 16.1272 9.12949 16.2623 9.00706 16.3975C8.80917 16.6079 8.62243 16.819 8.43568 17.0299C8.27809 17.2084 8.12051 17.387 7.96272 17.5711C5.64745 13.7412 4.7831 9.78239 6.07091 6.7727C8.94516 0.0992765 23.5163 -0.909037 34.3019 3.18892C41.0703 5.76309 44.222 9.6193 45.2451 13.8023Z" fill="url(#paint0_linear_689_7987)"/>
<path d="M42.7101 26.3994C41.814 28.0764 40.7024 29.8402 39.2346 31.5735C31.6046 40.5535 17.2197 47.6254 11.8444 42.6439C11.1868 42.0315 10.7274 41.1975 10.3789 40.2391C16.8575 40.7609 25.1884 38.9826 31.2286 35.7969C31.6218 35.5883 32.0268 35.3632 32.455 35.1168C35.1327 33.5696 38.4223 31.2069 41.2855 27.8828C41.6493 27.5667 41.9857 27.2385 42.3064 26.8817C42.4464 26.7249 42.5809 26.5678 42.7099 26.405L42.7101 26.3994Z" fill="url(#paint1_linear_689_7987)"/>
<path d="M10.3792 40.2357C5.92667 39.8752 2.34199 38.4295 0.998722 35.6043C-1.02691 31.3549 2.55808 23.909 7.98818 17.5571C9.10647 19.4062 10.5611 21.2178 12.2728 22.8827C9.8183 29.3821 8.83777 36.1726 10.3794 40.2301L10.3792 40.2357Z" fill="url(#paint2_linear_689_7987)"/>
<path d="M41.2871 27.8725C38.424 31.1966 35.1344 33.5593 32.4566 35.1065C32.0282 35.3586 31.6232 35.5835 31.2302 35.7866C25.1957 38.9726 16.8591 40.7507 10.3806 40.2288C8.8389 36.1714 9.81943 29.3808 12.2738 22.8813C12.2738 22.8813 12.2732 22.8981 12.273 22.9037C14.9484 25.4947 18.2465 27.7179 21.8779 29.1096C29.2621 31.9309 35.1065 31.517 39.1426 29.3451C39.2281 29.298 39.3137 29.251 39.3993 29.2039C40.0671 28.8212 40.704 28.3759 41.2873 27.8669L41.2871 27.8725Z" fill="url(#paint3_linear_689_7987)"/>
<path d="M45.6303 17.7143L45.6281 17.7702C45.624 17.8762 45.6198 17.988 45.6155 18.0996C45.6112 18.2113 45.6067 18.3285 45.6023 18.4458C45.4715 19.9619 45.1027 21.5751 44.4692 23.2453C44.4184 23.4056 44.3563 23.5654 44.2888 23.7249C43.8942 24.6997 43.3629 25.5965 42.7122 26.4049C42.5832 26.5677 42.4487 26.7247 42.3087 26.8815C41.988 27.2384 41.646 27.5664 41.2878 27.8826C40.7044 28.3915 40.0731 28.8372 39.3997 29.2197C39.3141 29.2667 39.2286 29.3137 39.143 29.3608C35.107 31.5328 29.2625 31.9466 21.8783 29.1252C18.2469 27.7336 14.9489 25.5103 12.2734 22.9194C12.2734 22.9194 12.2738 22.9082 12.274 22.9027C12.4546 22.4175 12.646 21.9383 12.843 21.4592C12.9539 21.1895 13.0703 20.92 13.1865 20.656C13.4191 20.1224 13.657 19.5946 13.9061 19.0673C14.1608 18.5402 14.4205 18.0301 14.6801 17.5199C14.8128 17.2621 14.9509 17.0102 15.0887 16.7638C15.3649 16.2599 15.6515 15.7731 15.938 15.292C16.5874 14.2263 17.2683 13.2122 17.9801 12.2664C18.1447 12.049 18.3094 11.8317 18.479 11.6312C18.6432 11.425 18.813 11.219 18.9826 11.0186C19.275 10.6719 19.578 10.3423 19.8751 10.0182C20.7938 9.06348 21.8044 8.1906 22.8885 7.4324C23.9899 6.66367 25.1765 6.00444 26.4287 5.52668C26.7177 5.41471 27.0119 5.31411 27.3058 5.21911C27.2947 5.21869 27.2777 5.22363 27.2664 5.22878C27.4351 5.1961 27.6055 5.11874 27.7749 5.06929C27.9726 5.00975 28.1754 4.96159 28.3727 4.91322C28.7728 4.81668 29.1781 4.73152 29.5886 4.65216C29.7799 4.61475 29.9765 4.58312 30.1729 4.55708C33.6175 4.12406 37.225 4.82691 40.0643 6.64118C42.5711 8.24141 44.4467 10.7234 45.2436 13.8185C45.2775 13.954 45.3058 14.0893 45.3395 14.2304C45.373 14.377 45.4009 14.5235 45.4288 14.67C45.488 15.019 45.5363 15.3619 45.5731 15.7101C45.6202 16.232 45.645 16.7474 45.6418 17.2674C45.6359 17.4237 45.641 17.5805 45.635 17.7369L45.6303 17.7143Z" fill="#1D072D"/>
<path d="M30.1517 4.5459C30.1126 4.54998 30.0735 4.55406 30.0343 4.5637L29.9844 4.56179C30.0402 4.55279 30.096 4.54935 30.1517 4.5459Z" fill="#3D67A6"/>
<path d="M30.0329 4.561C28.6469 4.74285 27.3009 5.19465 26.0376 5.67198C25.9527 5.70228 25.8785 5.74418 25.7989 5.78028C23.8107 6.67168 21.871 7.90045 19.8754 10.0051C19.5782 10.3293 19.2753 10.6588 18.9828 11.0055C18.9715 11.0107 18.9654 11.0216 18.9597 11.027C18.9305 11.0594 18.907 11.0921 18.8777 11.1245C18.7432 11.2871 18.614 11.4499 18.4848 11.6183C18.3152 11.8188 18.1505 12.0362 17.9859 12.2536C17.2687 13.1936 16.5878 14.2077 15.9382 15.279C15.652 15.7545 15.3651 16.2468 15.0892 16.7452C14.9511 16.9971 14.813 17.249 14.6803 17.5068C14.4153 18.0112 14.1555 18.5269 13.9064 19.0542C13.6519 19.5758 13.4137 20.1091 13.1813 20.6371C13.0705 20.9069 12.9541 21.1764 12.8433 21.4461C12.6409 21.9194 12.455 22.3988 12.2692 22.8782C10.5518 21.2187 9.10287 19.4017 7.98438 17.5582C8.14218 17.3741 8.29419 17.1954 8.45177 17.0168C8.63873 16.8003 8.82547 16.5894 9.02336 16.3789C9.14557 16.2493 9.26799 16.1141 9.39599 15.9793C9.84494 15.4819 10.3155 15.0023 10.7971 14.5286C10.9714 14.3507 11.1511 14.1787 11.3307 14.0066C11.557 13.7859 11.7942 13.5657 12.0372 13.3458C12.246 13.1412 12.4658 12.9427 12.691 12.75C12.7261 12.7066 12.7544 12.6965 12.8063 12.6537C12.9913 12.4875 13.1819 12.3214 13.3665 12.1663C13.442 12.0909 13.5228 12.0213 13.6032 11.9628C14.0417 11.5938 14.4851 11.2417 14.9227 10.8949C15.1699 10.7086 15.4171 10.5223 15.664 10.3417C15.7157 10.3045 15.7616 10.2727 15.8133 10.2355C16.1291 10.0071 16.4503 9.78455 16.7715 9.56196C16.9548 9.44035 17.1438 9.31338 17.327 9.19735C17.5048 9.07553 17.6876 8.96509 17.8764 8.84928C18.4824 8.47542 19.0879 8.11832 19.7044 7.76722C19.8868 7.66795 20.0639 7.56288 20.2465 7.45802C20.9659 7.04375 21.7165 6.68662 22.4767 6.37457C23.6797 5.86696 24.9231 5.47275 26.1911 5.16337C27.4308 4.86408 28.706 4.66122 29.9827 4.55908L30.0329 4.561Z" fill="url(#paint4_linear_689_7987)"/>
<path d="M8.52129 18.4102L7.97855 17.5674C7.97855 17.5674 7.39432 18.244 7.37095 18.2711C2.28862 24.4351 -0.967694 31.4629 0.974942 35.5469C1.15035 35.9228 1.36586 36.2721 1.61589 36.5948C-0.0859655 32.3467 2.95186 25.3384 7.94884 19.0706C7.96063 19.0543 8.10107 18.8863 8.5155 18.4156L8.52129 18.4102Z" fill="#B52889"/>
<path d="M44.8649 12.5022C44.8649 12.5022 44.8497 12.4625 44.845 12.44C44.8348 12.4116 44.8304 12.3835 44.8145 12.3604C44.7742 12.2471 44.7337 12.1393 44.6877 12.0257C44.688 12.0201 44.6827 12.0143 44.6773 12.0086C43.2526 8.53715 40.1181 5.39741 34.3517 3.19152C23.5726 -0.928565 8.99101 0.0625691 6.12855 6.71967C5.71801 7.67142 5.52145 8.72084 5.52345 9.83377C5.59696 9.22703 5.74251 8.63423 5.95925 8.07769C8.59099 1.3223 23.125 -0.173962 34.0361 3.55972C36.9182 4.54797 39.1711 5.78059 40.8925 7.18859C40.9032 7.20019 40.9195 7.21199 40.9303 7.22359C41.0281 7.29443 41.131 7.37666 41.2227 7.45847C41.4395 7.62894 41.6504 7.81036 41.8496 8.00253C41.9897 8.13093 42.1244 8.25911 42.2475 8.39803C42.9135 9.0834 43.4929 9.84375 43.9689 10.6784C43.9848 10.7014 44.0004 10.7299 44.0162 10.7586C44.0897 10.8787 44.1468 10.9928 44.2147 11.1128C44.2876 11.2498 44.3549 11.3866 44.4168 11.5232C44.4735 11.6429 44.5194 11.7565 44.5707 11.8759C44.5812 11.893 44.5863 11.9044 44.5913 11.9214C44.6123 11.9557 44.6221 11.9897 44.6432 12.024C44.6684 12.0921 44.7047 12.1661 44.73 12.2342C44.7911 12.3876 44.8522 12.5409 44.9076 12.6996C44.973 12.8866 45.0331 13.0679 45.0929 13.2547C45.0245 13.0004 44.9302 12.6996 44.8728 12.5305L44.8649 12.5022Z" fill="url(#paint5_linear_689_7987)"/>
<path opacity="0.15" d="M21.8676 29.0939C21.3893 28.9022 20.9164 28.7107 20.4555 28.503C20.3019 28.43 20.1426 28.3624 19.9893 28.2839C19.9181 28.2476 19.8523 28.2171 19.7756 28.1806C19.5836 28.0893 19.4029 27.9986 19.2169 27.8964C19.1404 27.8543 19.0635 27.8234 18.9871 27.7757C18.9106 27.7337 18.8394 27.6974 18.7573 27.655C18.741 27.6433 18.7191 27.6313 18.7028 27.6195C18.5331 27.5291 18.3803 27.4393 18.2162 27.3492C18.0906 27.2773 17.9594 27.2051 17.8395 27.1279C17.7248 27.062 17.6049 26.9847 17.4904 26.9132C17.2505 26.7642 17.0104 26.6208 16.7764 26.4608C16.6181 26.3653 16.4713 26.2646 16.3188 26.1637C16.2482 26.1107 16.1773 26.0689 16.1068 26.0158C15.9599 25.9151 15.813 25.8144 15.6719 25.7083C15.5357 25.6193 15.411 25.525 15.2864 25.4252C15.1451 25.3247 15.0094 25.2244 14.8738 25.1186C14.5265 24.8592 14.1963 24.5893 13.8664 24.3083C13.7095 24.1793 13.5527 24.0447 13.4072 23.9105C13.2178 23.7523 13.0398 23.5888 12.8621 23.4199C12.6627 23.2333 12.4633 23.0467 12.2694 22.8603C12.2696 22.8547 12.2698 22.8492 12.27 22.8436L12.2645 22.8434C11.8879 22.471 11.5225 22.0992 11.1743 21.7168C11.0186 21.5543 10.8687 21.3864 10.7244 21.2187C10.5639 21.0391 10.4034 20.8541 10.2542 20.6694C9.62955 19.924 9.05058 19.1526 8.54409 18.3839C8.44353 18.2401 8.35431 18.0913 8.25932 17.9479C8.16433 17.8044 8.07491 17.6612 7.98548 17.5181C7.87421 17.6536 7.76337 17.7779 7.64652 17.9133C7.5704 18.0054 7.4943 18.0976 7.41797 18.1953C7.62404 18.4996 7.84083 18.8155 7.97829 19.0165C9.01701 20.6108 10.4204 22.3031 11.9336 23.7535C12.1326 23.9512 12.3128 24.0587 12.5227 24.2625C15.2854 26.7617 18.7202 28.9119 22.4458 30.0331C28.6656 31.9152 32.7343 31.0755 32.7343 31.0755C32.7343 31.0755 27.8656 31.5211 21.8563 29.099L21.8676 29.0939Z" fill="#0D0D0C"/>
<path d="M42.7022 26.3999C41.8664 28.1071 40.8201 29.9124 39.4064 31.6926C32.0956 40.9365 18.0333 48.4792 12.4888 43.6871C11.8078 43.1018 11.2687 42.3094 10.875 41.366C17.3679 41.6592 25.632 39.5876 31.5517 36.1903C31.9342 35.97 32.3343 35.728 32.752 35.4644C35.3718 33.8255 38.5822 31.3479 41.3262 27.9243C41.6794 27.5966 42.0052 27.2512 42.3151 26.8884C42.4497 26.7257 42.5786 26.5685 42.7022 26.3999Z" fill="url(#paint6_linear_689_7987)"/>
<mask id="mask2_689_7987" style="mask-type:alpha" maskUnits="userSpaceOnUse" x="12" y="4" width="34" height="28">
<path d="M45.63 17.711L45.6278 17.7667C45.6238 17.8729 45.6196 17.9845 45.6153 18.0963C45.611 18.2079 45.6064 18.3252 45.602 18.4425C45.4713 19.9585 45.1025 21.5717 44.4691 23.242C44.4183 23.4021 44.3563 23.562 44.2887 23.7216C43.8941 24.6963 43.3629 25.5931 42.7122 26.4014C42.5832 26.5643 42.4488 26.7212 42.3087 26.8781C41.988 27.2348 41.6461 27.5629 41.2878 27.8792C40.7044 28.388 40.0732 28.8336 39.3998 29.216C39.3143 29.2632 39.2287 29.3102 39.1432 29.3572C35.1072 31.5291 29.2628 31.9427 21.8785 29.121C18.2471 27.7293 14.9489 25.5059 12.2734 22.9148C12.2734 22.9148 12.2738 22.9037 12.274 22.898C12.4546 22.4129 12.646 21.9336 12.843 21.4547C12.9538 21.1849 13.0702 20.9153 13.1864 20.6514C13.419 20.1178 13.6569 19.5901 13.906 19.0628C14.1607 18.5357 14.4203 18.0256 14.6799 17.5154C14.8126 17.2577 14.9507 17.0057 15.0885 16.7593C15.3646 16.2554 15.6513 15.7686 15.9377 15.2875C16.5871 14.2219 17.2679 13.2078 17.9797 12.2621C18.1443 12.0447 18.3089 11.8273 18.4785 11.6269C18.6427 11.4206 18.8125 11.2146 18.9821 11.0142C19.2745 10.6675 19.5775 10.338 19.8746 10.0139C20.7933 9.05917 21.8038 8.18633 22.8879 7.42816C23.9893 6.65946 25.1758 6.00029 26.428 5.52256C26.717 5.4106 27.0112 5.31003 27.3051 5.21503C27.294 5.2146 27.277 5.21955 27.2657 5.2247C27.4344 5.19202 27.6048 5.11467 27.7742 5.06523C27.9719 5.00569 28.1747 4.95754 28.372 4.90917C28.7721 4.81265 29.1773 4.72751 29.5879 4.64817C29.7792 4.61075 29.9758 4.57913 30.1722 4.55311C33.6168 4.12021 37.2243 4.82319 40.0636 6.63757C42.5705 8.2379 44.4462 10.72 45.2432 13.815C45.2771 13.9506 45.3054 14.0859 45.3391 14.227C45.3725 14.3737 45.4005 14.5201 45.4284 14.6666C45.4876 15.0156 45.5359 15.3586 45.5727 15.7067C45.6198 16.2286 45.6447 16.7441 45.6415 17.264C45.6356 17.4203 45.6407 17.5771 45.6347 17.7334L45.63 17.711Z" fill="#1D072D"/>
</mask>
<g mask="url(#mask2_689_7987)">
<path d="M45.1547 12.5534H35.4544V31.3712H27.359V12.4413H17.3008V4.26562H45.1917V12.5534H45.1547Z" fill="white"/>
</g>
<path d="M189.724 12.9912C188.759 11.3388 187.369 10.0488 185.611 9.13347C183.87 8.23659 181.786 7.77588 179.425 7.77588H171.375V29.9397H179.425C181.786 29.9397 183.87 29.4852 185.611 28.5822C187.369 27.6791 188.759 26.3768 189.724 24.7243C190.689 23.0596 191.175 21.0816 191.175 18.8517C191.175 16.6217 190.689 14.6253 189.724 12.979V12.9912ZM184.221 21.4502C183.932 22.0952 183.544 22.6173 183.058 23.0043C182.573 23.4097 182.007 23.6862 181.349 23.8644C180.679 24.0425 179.971 24.1407 179.246 24.1407H177.844V13.5872L179.246 13.581C179.971 13.581 180.679 13.6731 181.343 13.8574C181.994 14.0294 182.567 14.3182 183.04 14.7113C183.532 15.0983 183.919 15.6388 184.214 16.3085C184.515 16.9781 184.663 17.838 184.663 18.864C184.663 19.8898 184.509 20.7683 184.214 21.4563L184.221 21.4502Z" fill="#FF6700"/>
<path d="M141.865 18.4094L137.321 7.77588H129.893H129.887L130.391 8.75261L141.274 30.0933L141.865 31.2482L142.461 30.0933L153.345 8.75261L153.843 7.77588H153.837H146.416L141.865 18.4094Z" fill="#FF6700"/>
<path d="M170.154 13.2554V7.78202H155.746L155.082 7.77588V29.9397H170.16V24.4664H161.207V21.5914H169.569V16.1057H161.207V13.2616H170.16L170.154 13.2554Z" fill="#FF6700"/>
<path fill-rule="evenodd" clip-rule="evenodd" d="M122.34 7.76367V15.3503H114.77V7.76367H108.449V29.9275H114.77V21.2106H122.34V29.9275H128.661V7.76367H122.34Z" fill="#FE1F10"/>
<path fill-rule="evenodd" clip-rule="evenodd" d="M97.2953 14.0564C98.1501 13.6263 99.0601 13.4175 100.099 13.4175C101.003 13.4175 101.809 13.5342 102.485 13.7677C102.854 13.8844 103.173 14.0134 103.475 14.1792L103.991 14.4495L104.323 13.9704L106.808 10.4627L107.176 9.94673L106.678 9.55359C105.806 8.85329 104.834 8.30657 103.795 7.90113C102.737 7.49569 101.391 7.29297 99.7976 7.29297C98.064 7.29297 96.453 7.56941 94.9895 8.10384C93.5077 8.64443 92.2225 9.45531 91.1526 10.4873C90.0888 11.5255 89.2464 12.7602 88.6684 14.1547C88.0904 15.5553 87.7891 17.134 87.7891 18.8541C87.7891 20.5741 88.0843 22.1406 88.6684 23.5412C89.2526 24.9479 90.0888 26.1826 91.1526 27.2146C92.2163 28.2406 93.5077 29.0392 94.9895 29.592C96.4652 30.1326 98.0824 30.4091 99.7976 30.4091C101.378 30.4091 102.725 30.2001 103.789 29.8009C104.827 29.4077 105.794 28.8487 106.672 28.1546L107.176 27.7491L106.796 27.2269L104.256 23.7316L103.93 23.277L103.432 23.5228C103.113 23.6824 102.793 23.8114 102.479 23.9159C101.784 24.1493 100.984 24.2722 100.093 24.2722C99.0785 24.2722 98.1378 24.0572 97.2892 23.6271C96.4714 23.2033 95.8257 22.6013 95.3092 21.7904C94.8173 20.9734 94.559 19.9782 94.559 18.8479C94.559 17.7176 94.8112 16.7101 95.3092 15.9055C95.8257 15.0884 96.4775 14.4802 97.2953 14.0625V14.0564ZM93.8889 18.8479C93.8889 18.8479 93.8889 18.811 93.8889 18.7927C93.8889 18.811 93.8889 18.8295 93.8889 18.8479ZM88.4532 18.8479C88.4532 18.9277 88.4593 19.0077 88.4655 19.0875C88.4655 19.0077 88.4532 18.9277 88.4532 18.8479Z" fill="#FE1F10"/>
<path fill-rule="evenodd" clip-rule="evenodd" d="M71.5078 29.9592H86.585V24.4859H77.6322V21.6049H85.9947V16.1192H77.6322V13.2749H86.585V7.79541H71.5078V29.9592Z" fill="#FE1F10"/>
<path fill-rule="evenodd" clip-rule="evenodd" d="M70.2811 13.2383H63.2353V29.9594H56.6489V13.2383H49.5898V7.74707H70.2811V13.2383Z" fill="#FE1F10"/>
<path d="M75.5064 44.8383H74.5469V38.7348C74.5469 38.3368 74.6196 38.0016 74.7648 37.7295C74.9134 37.4539 75.1261 37.2464 75.4027 37.1069C75.6793 36.964 76.0078 36.8926 76.3881 36.8926C76.4987 36.8926 76.6094 36.8993 76.72 36.913C76.8341 36.9266 76.9447 36.947 77.0519 36.9742L77 37.7448C76.9275 37.7278 76.8444 37.7158 76.7511 37.7091C76.6612 37.7022 76.5713 37.6988 76.4814 37.6988C76.2774 37.6988 76.1011 37.7397 75.9524 37.8213C75.8073 37.8996 75.6965 38.0152 75.6205 38.1683C75.5445 38.3215 75.5064 38.5103 75.5064 38.7348V44.8383ZM76.6992 39.3166V40.0413H73.6602V39.3166H76.6992Z" fill="#1D072D"/>
<path d="M70.5581 44.9397C70.1673 44.9397 69.813 44.8751 69.4949 44.7458C69.1803 44.6132 68.9088 44.4277 68.6807 44.1895C68.4559 43.9514 68.2831 43.669 68.162 43.3424C68.041 43.0158 67.9805 42.6586 67.9805 42.2707V42.0564C67.9805 41.6073 68.0479 41.2075 68.1828 40.8571C68.3175 40.5033 68.5008 40.2039 68.7325 39.959C68.9642 39.714 69.2269 39.5286 69.5208 39.4027C69.8147 39.2768 70.1189 39.2139 70.4335 39.2139C70.8346 39.2139 71.1804 39.282 71.4708 39.418C71.7648 39.5541 72.005 39.7446 72.1917 39.9896C72.3784 40.2312 72.5168 40.517 72.6066 40.847C72.6965 41.1735 72.7415 41.5308 72.7415 41.9186V42.3422H68.5509V41.5716H71.782V41.5001C71.7681 41.2552 71.7164 41.017 71.6264 40.7856C71.54 40.5543 71.4016 40.3638 71.2115 40.2142C71.0213 40.0645 70.7621 39.9896 70.4335 39.9896C70.2158 39.9896 70.0153 40.0355 69.832 40.1274C69.6488 40.2159 69.4914 40.3485 69.36 40.5254C69.2287 40.7023 69.1267 40.9183 69.054 41.1735C68.9815 41.4287 68.9452 41.723 68.9452 42.0564V42.2707C68.9452 42.5327 68.9815 42.7794 69.054 43.0107C69.1301 43.2386 69.239 43.4394 69.3808 43.6129C69.526 43.7864 69.7005 43.9225 69.9046 44.0211C70.1121 44.1198 70.3472 44.1691 70.6099 44.1691C70.9488 44.1691 71.2357 44.1011 71.4708 43.965C71.7059 43.8289 71.9117 43.6469 72.088 43.4189L72.6688 43.8731C72.5479 44.0534 72.394 44.2253 72.2073 44.3886C72.0205 44.5518 71.7906 44.6845 71.5175 44.7866C71.2479 44.8887 70.928 44.9397 70.5581 44.9397Z" fill="#1D072D"/>
<path d="M65.5607 43.7664V36.9995H66.5253V44.8381H65.6437L65.5607 43.7664ZM61.7852 42.1385V42.0313C61.7852 41.6095 61.8369 41.2266 61.9407 40.8831C62.0479 40.5361 62.1983 40.2384 62.3919 39.99C62.5889 39.7417 62.8223 39.5511 63.092 39.4184C63.3652 39.2823 63.6695 39.2143 64.0048 39.2143C64.3575 39.2143 64.6652 39.2756 64.928 39.398C65.1942 39.5171 65.419 39.6924 65.6022 39.9237C65.7889 40.1516 65.9359 40.4271 66.043 40.7504C66.1502 41.0736 66.2245 41.4394 66.2661 41.8476V42.3171C66.228 42.722 66.1536 43.086 66.043 43.4092C65.9359 43.7324 65.7889 44.008 65.6022 44.2359C65.419 44.4638 65.1942 44.6391 64.928 44.7615C64.6617 44.8806 64.3506 44.9402 63.9944 44.9402C63.666 44.9402 63.3652 44.8704 63.092 44.7309C62.8223 44.5915 62.5889 44.3958 62.3919 44.144C62.1983 43.8923 62.0479 43.5963 61.9407 43.2561C61.8369 42.9124 61.7852 42.54 61.7852 42.1385ZM62.7498 42.0313V42.1385C62.7498 42.414 62.7774 42.6726 62.8328 42.9141C62.8915 43.1557 62.9814 43.3684 63.1025 43.5521C63.2234 43.7358 63.3773 43.8804 63.564 43.9859C63.7507 44.0879 63.9737 44.139 64.233 44.139C64.5511 44.139 64.8122 44.0726 65.0162 43.9399C65.2236 43.8073 65.3895 43.632 65.514 43.4143C65.6385 43.1965 65.7353 42.96 65.8044 42.705V41.4751C65.763 41.2879 65.7025 41.1077 65.6229 40.9341C65.5469 40.7572 65.4466 40.6007 65.3221 40.4646C65.2012 40.3252 65.0508 40.2145 64.8709 40.1329C64.6946 40.0512 64.4855 40.0104 64.2434 40.0104C63.9806 40.0104 63.7541 40.0648 63.564 40.1738C63.3773 40.2792 63.2234 40.4255 63.1025 40.6126C62.9814 40.7963 62.8915 41.0106 62.8328 41.2556C62.7774 41.4971 62.7498 41.7558 62.7498 42.0313Z" fill="#1D072D"/>
<path d="M58.5072 44.9397C58.1166 44.9397 57.7622 44.8751 57.4441 44.7458C57.1295 44.6132 56.858 44.4277 56.6299 44.1895C56.4051 43.9514 56.2323 43.669 56.1112 43.3424C55.9902 43.0158 55.9297 42.6586 55.9297 42.2707V42.0564C55.9297 41.6073 55.9971 41.2075 56.132 40.8571C56.2668 40.5033 56.4501 40.2039 56.6817 39.959C56.9134 39.714 57.1761 39.5286 57.47 39.4027C57.7639 39.2768 58.0682 39.2139 58.3828 39.2139C58.7839 39.2139 59.1296 39.282 59.42 39.418C59.714 39.5541 59.9542 39.7446 60.1409 39.9896C60.3276 40.2312 60.466 40.517 60.5558 40.847C60.6457 41.1735 60.6907 41.5308 60.6907 41.9186V42.3422H56.5002V41.5716H59.7312V41.5001C59.7174 41.2552 59.6656 41.017 59.5756 40.7856C59.4892 40.5543 59.3509 40.3638 59.1607 40.2142C58.9705 40.0645 58.7113 39.9896 58.3828 39.9896C58.165 39.9896 57.9645 40.0355 57.7812 40.1274C57.598 40.2159 57.4406 40.3485 57.3092 40.5254C57.1779 40.7023 57.0759 40.9183 57.0033 41.1735C56.9307 41.4287 56.8943 41.723 56.8943 42.0564V42.2707C56.8943 42.5327 56.9307 42.7794 57.0033 43.0107C57.0793 43.2386 57.1882 43.4394 57.33 43.6129C57.4752 43.7864 57.6498 43.9225 57.8538 44.0211C58.0613 44.1198 58.2964 44.1691 58.5591 44.1691C58.898 44.1691 59.185 44.1011 59.42 43.965C59.6551 43.8289 59.8609 43.6469 60.0372 43.4189L60.6181 43.8731C60.4971 44.0534 60.3432 44.2253 60.1565 44.3886C59.9698 44.5518 59.7398 44.6845 59.4668 44.7866C59.1971 44.8887 58.8772 44.9397 58.5072 44.9397Z" fill="#1D072D"/>
<path d="M49.5664 37.4077H52.0661C52.6332 37.4077 53.112 37.4928 53.5027 37.6629C53.8969 37.833 54.1959 38.0848 54.3999 38.4182C54.6074 38.7482 54.7111 39.1547 54.7111 39.6378C54.7111 39.9781 54.6403 40.2893 54.4985 40.5717C54.3601 40.8508 54.1596 41.0889 53.8969 41.2862C53.6376 41.4802 53.3263 41.6247 52.9633 41.7199L52.6833 41.8272H50.3339L50.3236 41.0259H52.0972C52.4569 41.0259 52.7559 40.9647 52.9944 40.8422C53.233 40.7164 53.4128 40.548 53.5338 40.337C53.6549 40.1261 53.7153 39.893 53.7153 39.6378C53.7153 39.352 53.6584 39.102 53.5442 38.8876C53.4301 38.6733 53.2503 38.5083 53.0049 38.3927C52.7628 38.2736 52.4499 38.2141 52.0661 38.2141H50.5673V44.838H49.5664V37.4077ZM53.9798 44.838L52.1439 41.4699L53.1864 41.4648L55.0482 44.7768V44.838H53.9798Z" fill="#1D072D"/>
<path d="M199.901 37.4092L199.833 42.7421H198.968L198.895 37.4092H199.901ZM198.863 44.3649C198.863 44.2118 198.91 44.0825 199.003 43.9771C199.101 43.8716 199.242 43.8188 199.429 43.8188C199.612 43.8188 199.752 43.8716 199.849 43.9771C199.95 44.0825 199.999 44.2118 199.999 44.3649C199.999 44.5112 199.95 44.6371 199.849 44.7426C199.752 44.848 199.612 44.9007 199.429 44.9007C199.242 44.9007 199.101 44.848 199.003 44.7426C198.91 44.6371 198.863 44.5112 198.863 44.3649Z" fill="#1D072D"/>
<path d="M196.326 43.3745C196.326 43.2384 196.295 43.1125 196.233 42.9968C196.174 42.8778 196.052 42.7706 195.865 42.6754C195.682 42.5767 195.405 42.4916 195.035 42.4202C194.724 42.3555 194.443 42.2789 194.19 42.1905C193.941 42.1021 193.728 41.9949 193.552 41.869C193.379 41.7432 193.246 41.5952 193.152 41.4251C193.059 41.2549 193.012 41.0559 193.012 40.828C193.012 40.6102 193.061 40.4044 193.158 40.2105C193.258 40.0165 193.398 39.8448 193.578 39.6951C193.761 39.5454 193.98 39.428 194.237 39.3429C194.492 39.2579 194.778 39.2153 195.093 39.2153C195.542 39.2153 195.926 39.2936 196.244 39.45C196.562 39.6066 196.805 39.8158 196.975 40.0778C197.144 40.3363 197.229 40.6238 197.229 40.9402H196.27C196.27 40.7871 196.223 40.6391 196.129 40.4962C196.04 40.3499 195.907 40.2291 195.73 40.1339C195.557 40.0387 195.345 39.991 195.093 39.991C194.826 39.991 194.61 40.0318 194.444 40.1135C194.282 40.1918 194.162 40.2921 194.086 40.4146C194.013 40.5371 193.977 40.6663 193.977 40.8024C193.977 40.9045 193.994 40.9963 194.029 41.0781C194.067 41.1563 194.132 41.2294 194.226 41.2974C194.319 41.3621 194.451 41.4233 194.621 41.4811C194.789 41.539 195.006 41.5968 195.269 41.6547C195.729 41.7568 196.107 41.8792 196.405 42.0221C196.702 42.165 196.923 42.3402 197.068 42.5477C197.214 42.7553 197.287 43.0071 197.287 43.303C197.287 43.5446 197.234 43.7657 197.13 43.9664C197.03 44.1672 196.883 44.3407 196.69 44.487C196.499 44.6298 196.272 44.7422 196.005 44.8238C195.743 44.902 195.447 44.9412 195.119 44.9412C194.623 44.9412 194.205 44.8544 193.863 44.6809C193.521 44.5074 193.262 44.2828 193.085 44.0073C192.909 43.7317 192.82 43.4408 192.82 43.1346H193.786C193.799 43.3932 193.875 43.599 194.013 43.7521C194.152 43.9018 194.321 44.009 194.522 44.0736C194.722 44.1348 194.921 44.1654 195.119 44.1654C195.381 44.1654 195.601 44.1314 195.777 44.0634C195.956 43.9954 196.094 43.9018 196.186 43.7827C196.28 43.6636 196.326 43.5276 196.326 43.3745Z" fill="#1D072D"/>
<path d="M189.546 44.9412C189.156 44.9412 188.802 44.8766 188.484 44.7472C188.169 44.6145 187.897 44.4291 187.67 44.191C187.445 43.9528 187.272 43.6705 187.151 43.3439C187.029 43.0172 186.969 42.6601 186.969 42.2722V42.0579C186.969 41.6088 187.036 41.209 187.172 40.8586C187.306 40.5047 187.49 40.2054 187.721 39.9604C187.953 39.7154 188.215 39.53 188.51 39.4041C188.803 39.2783 189.108 39.2153 189.422 39.2153C189.824 39.2153 190.169 39.2833 190.46 39.4194C190.753 39.5555 190.994 39.746 191.18 39.991C191.367 40.2325 191.506 40.5183 191.595 40.8483C191.685 41.175 191.73 41.5322 191.73 41.92V42.3437H187.539V41.573H190.771V41.5016C190.757 41.2566 190.704 41.0185 190.615 40.7871C190.528 40.5558 190.39 40.3652 190.2 40.2155C190.01 40.0658 189.751 39.991 189.422 39.991C189.204 39.991 189.004 40.0369 188.821 40.1289C188.638 40.2172 188.48 40.3499 188.348 40.5269C188.217 40.7038 188.115 40.9198 188.042 41.175C187.97 41.4301 187.934 41.7244 187.934 42.0579V42.2722C187.934 42.5341 187.97 42.7808 188.042 43.0122C188.119 43.2401 188.227 43.4408 188.369 43.6143C188.514 43.7878 188.689 43.9239 188.893 44.0226C189.101 44.1213 189.336 44.1706 189.598 44.1706C189.937 44.1706 190.224 44.1025 190.46 43.9664C190.694 43.8303 190.9 43.6483 191.076 43.4204L191.658 43.8746C191.536 44.0549 191.382 44.2268 191.195 44.39C191.01 44.5533 190.779 44.686 190.507 44.7881C190.236 44.8902 189.916 44.9412 189.546 44.9412Z" fill="#1D072D"/>
<path d="M183.69 44.1654C183.919 44.1654 184.13 44.1195 184.324 44.0277C184.516 43.9358 184.675 43.81 184.801 43.65C184.925 43.4867 184.996 43.3013 185.012 43.0938H185.926C185.908 43.4204 185.796 43.7249 185.589 44.0073C185.384 44.2862 185.117 44.5124 184.785 44.686C184.453 44.8561 184.088 44.9412 183.69 44.9412C183.269 44.9412 182.9 44.868 182.586 44.7217C182.275 44.5755 182.015 44.3747 181.808 44.1195C181.604 43.8643 181.45 43.5718 181.346 43.2418C181.246 42.9084 181.195 42.5563 181.195 42.1854V41.9711C181.195 41.6002 181.246 41.2498 181.346 40.9198C181.45 40.5864 181.604 40.2921 181.808 40.0369C182.015 39.7818 182.275 39.581 182.586 39.4347C182.9 39.2885 183.269 39.2153 183.69 39.2153C184.13 39.2153 184.513 39.3038 184.841 39.4807C185.17 39.6542 185.428 39.8924 185.615 40.1952C185.805 40.4946 185.908 40.8347 185.926 41.2158H185.012C184.996 40.9879 184.93 40.782 184.816 40.5983C184.705 40.4146 184.553 40.2683 184.359 40.1595C184.169 40.0471 183.946 39.991 183.69 39.991C183.396 39.991 183.15 40.0488 182.949 40.1645C182.752 40.2768 182.594 40.4299 182.477 40.6238C182.362 40.8143 182.28 41.027 182.228 41.2618C182.179 41.4931 182.156 41.7295 182.156 41.9711V42.1854C182.156 42.427 182.179 42.6651 182.228 42.8998C182.276 43.1346 182.357 43.3472 182.472 43.5378C182.589 43.7283 182.746 43.8814 182.944 43.997C183.144 44.1094 183.393 44.1654 183.69 44.1654Z" fill="#1D072D"/>
<path d="M176.319 40.4962V44.8391H175.359V39.3174H176.267L176.319 40.4962ZM176.091 41.869L175.691 41.8537C175.695 41.4761 175.752 41.1274 175.862 40.8076C175.974 40.4843 176.129 40.2037 176.33 39.9655C176.53 39.7274 176.769 39.5437 177.045 39.4143C177.326 39.2816 177.635 39.2153 177.974 39.2153C178.25 39.2153 178.499 39.2527 178.72 39.3276C178.942 39.399 179.13 39.5147 179.286 39.6746C179.445 39.8345 179.565 40.0421 179.649 40.2972C179.731 40.5489 179.773 40.8569 179.773 41.2209V44.8391H178.809V41.2107C178.809 40.9215 178.765 40.6902 178.678 40.5166C178.592 40.3398 178.466 40.2122 178.3 40.1339C178.134 40.0522 177.93 40.0115 177.688 40.0115C177.45 40.0115 177.232 40.0608 177.034 40.1595C176.841 40.2581 176.673 40.3942 176.531 40.5677C176.393 40.7412 176.285 40.9402 176.205 41.1647C176.129 41.3859 176.091 41.6207 176.091 41.869Z" fill="#1D072D"/>
<path d="M171.843 44.9412C171.453 44.9412 171.098 44.8766 170.78 44.7472C170.465 44.6145 170.194 44.4291 169.965 44.191C169.741 43.9528 169.568 43.6705 169.448 43.3439C169.326 43.0172 169.266 42.6601 169.266 42.2722V42.0579C169.266 41.6088 169.333 41.209 169.467 40.8586C169.603 40.5047 169.786 40.2054 170.018 39.9604C170.25 39.7154 170.512 39.53 170.806 39.4041C171.1 39.2783 171.404 39.2153 171.719 39.2153C172.12 39.2153 172.465 39.2833 172.756 39.4194C173.05 39.5555 173.29 39.746 173.477 39.991C173.663 40.2325 173.801 40.5183 173.892 40.8483C173.981 41.175 174.027 41.5322 174.027 41.92V42.3437H169.836V41.573H173.067V41.5016C173.053 41.2566 173.001 41.0185 172.912 40.7871C172.825 40.5558 172.687 40.3652 172.496 40.2155C172.306 40.0658 172.047 39.991 171.719 39.991C171.501 39.991 171.3 40.0369 171.118 40.1289C170.934 40.2172 170.777 40.3499 170.645 40.5269C170.514 40.7038 170.412 40.9198 170.339 41.175C170.267 41.4301 170.23 41.7244 170.23 42.0579V42.2722C170.23 42.5341 170.267 42.7808 170.339 43.0122C170.416 43.2401 170.524 43.4408 170.666 43.6143C170.811 43.7878 170.985 43.9239 171.19 44.0226C171.397 44.1213 171.632 44.1706 171.895 44.1706C172.234 44.1706 172.521 44.1025 172.756 43.9664C172.991 43.8303 173.197 43.6483 173.373 43.4204L173.954 43.8746C173.833 44.0549 173.679 44.2268 173.492 44.39C173.305 44.5533 173.076 44.686 172.802 44.7881C172.533 44.8902 172.213 44.9412 171.843 44.9412Z" fill="#1D072D"/>
<path d="M167.763 39.3168V44.8386H166.799V39.3168H167.763ZM166.727 37.8522C166.727 37.6991 166.773 37.5698 166.867 37.4643C166.963 37.3588 167.105 37.3062 167.291 37.3062C167.475 37.3062 167.615 37.3588 167.712 37.4643C167.812 37.5698 167.862 37.6991 167.862 37.8522C167.862 37.9985 167.812 38.1243 167.712 38.2298C167.615 38.3319 167.475 38.3829 167.291 38.3829C167.105 38.3829 166.963 38.3319 166.867 38.2298C166.773 38.1243 166.727 37.9985 166.727 37.8522Z" fill="#1D072D"/>
<path d="M163.869 40.1849V44.8391H162.91V39.3174H163.844L163.869 40.1849ZM165.623 39.2868L165.617 40.1645C165.537 40.1475 165.462 40.1373 165.389 40.1339C165.32 40.1271 165.24 40.1237 165.151 40.1237C164.929 40.1237 164.734 40.1577 164.564 40.2258C164.395 40.2938 164.251 40.3891 164.134 40.5116C164.017 40.634 163.923 40.7803 163.853 40.9504C163.788 41.1171 163.745 41.3008 163.724 41.5016L163.455 41.6547C163.455 41.3213 163.488 41.0083 163.553 40.7156C163.622 40.4231 163.728 40.1645 163.869 39.94C164.012 39.7121 164.191 39.5351 164.409 39.4093C164.63 39.2799 164.893 39.2153 165.197 39.2153C165.266 39.2153 165.346 39.2238 165.436 39.2409C165.525 39.2545 165.588 39.2698 165.623 39.2868Z" fill="#1D072D"/>
<path d="M159.394 44.9412C159.003 44.9412 158.648 44.8766 158.33 44.7472C158.016 44.6145 157.745 44.4291 157.516 44.191C157.292 43.9528 157.119 43.6705 156.997 43.3439C156.877 43.0172 156.816 42.6601 156.816 42.2722V42.0579C156.816 41.6088 156.884 41.209 157.018 40.8586C157.153 40.5047 157.336 40.2054 157.568 39.9604C157.8 39.7154 158.063 39.53 158.356 39.4041C158.65 39.2783 158.955 39.2153 159.27 39.2153C159.67 39.2153 160.016 39.2833 160.306 39.4194C160.601 39.5555 160.84 39.746 161.027 39.991C161.214 40.2325 161.352 40.5183 161.443 40.8483C161.532 41.175 161.577 41.5322 161.577 41.92V42.3437H157.387V41.573H160.618V41.5016C160.604 41.2566 160.552 41.0185 160.463 40.7871C160.376 40.5558 160.237 40.3652 160.047 40.2155C159.857 40.0658 159.598 39.991 159.27 39.991C159.051 39.991 158.851 40.0369 158.667 40.1289C158.484 40.2172 158.327 40.3499 158.196 40.5269C158.064 40.7038 157.963 40.9198 157.89 41.175C157.817 41.4301 157.781 41.7244 157.781 42.0579V42.2722C157.781 42.5341 157.817 42.7808 157.89 43.0122C157.966 43.2401 158.075 43.4408 158.216 43.6143C158.362 43.7878 158.536 43.9239 158.74 44.0226C158.948 44.1213 159.183 44.1706 159.446 44.1706C159.785 44.1706 160.072 44.1025 160.306 43.9664C160.542 43.8303 160.748 43.6483 160.924 43.4204L161.504 43.8746C161.383 44.0549 161.23 44.2268 161.043 44.39C160.856 44.5533 160.627 44.686 160.353 44.7881C160.084 44.8902 159.764 44.9412 159.394 44.9412Z" fill="#1D072D"/>
<path d="M151.848 40.3789V46.9621H150.883V39.3174H151.765L151.848 40.3789ZM155.628 42.0323V42.1395C155.628 42.541 155.58 42.9134 155.483 43.2571C155.387 43.5973 155.245 43.8933 155.058 44.1451C154.875 44.3968 154.648 44.5925 154.379 44.7319C154.108 44.8714 153.799 44.9412 153.45 44.9412C153.095 44.9412 152.779 44.8833 152.506 44.7676C152.234 44.652 152.001 44.4836 151.811 44.2625C151.621 44.0413 151.469 43.776 151.355 43.4663C151.245 43.1568 151.168 42.808 151.126 42.4202V41.8486C151.168 41.4404 151.246 41.0746 151.36 40.7514C151.474 40.4282 151.624 40.1526 151.811 39.9247C152.001 39.6934 152.232 39.5181 152.501 39.399C152.77 39.2766 153.082 39.2153 153.435 39.2153C153.787 39.2153 154.101 39.2833 154.374 39.4194C154.646 39.5521 154.877 39.7427 155.063 39.991C155.25 40.2394 155.39 40.5371 155.483 40.8841C155.58 41.2277 155.628 41.6105 155.628 42.0323ZM154.664 42.1395V42.0323C154.664 41.7568 154.634 41.4981 154.576 41.2566C154.517 41.0117 154.426 40.7973 154.301 40.6136C154.18 40.4265 154.024 40.2802 153.834 40.1748C153.644 40.0658 153.418 40.0115 153.154 40.0115C152.913 40.0115 152.702 40.0522 152.522 40.1339C152.346 40.2155 152.195 40.3262 152.071 40.4656C151.946 40.6017 151.844 40.7582 151.765 40.9351C151.689 41.1087 151.631 41.289 151.594 41.4761V42.7978C151.663 43.0359 151.76 43.2605 151.884 43.4714C152.008 43.679 152.174 43.8473 152.382 43.9767C152.59 44.1025 152.85 44.1654 153.165 44.1654C153.425 44.1654 153.647 44.1127 153.834 44.0073C154.024 43.8984 154.18 43.7504 154.301 43.5632C154.426 43.3762 154.517 43.1619 154.576 42.9203C154.634 42.6754 154.664 42.415 154.664 42.1395Z" fill="#1D072D"/>
<path d="M146.057 39.3169L147.286 41.3276L148.531 39.3169H149.656L147.82 42.042L149.713 44.8387H148.603L147.306 42.7667L146.01 44.8387H144.895L146.782 42.042L144.952 39.3169H146.057Z" fill="#1D072D"/>
<path d="M144.098 44.0383V44.8395H140.1V44.0383H144.098ZM140.302 37.4092V44.8395H139.301V37.4092H140.302ZM143.569 40.6038V41.405H140.1V40.6038H143.569ZM144.046 37.4092V38.2155H140.1V37.4092H144.046Z" fill="#1D072D"/>
<path d="M134.559 37.0005V44.8391H133.594V37.0005H134.559Z" fill="#1D072D"/>
<path d="M130.835 43.8951V41.0525C130.835 40.8347 130.79 40.6459 130.699 40.486C130.613 40.3227 130.482 40.1968 130.306 40.1084C130.129 40.0199 129.911 39.9757 129.652 39.9757C129.41 39.9757 129.197 40.0165 129.014 40.0982C128.835 40.1798 128.692 40.287 128.589 40.4197C128.489 40.5524 128.439 40.6953 128.439 40.8483H127.479C127.479 40.651 127.531 40.4554 127.635 40.2615C127.738 40.0675 127.887 39.8924 128.081 39.7358C128.278 39.576 128.512 39.45 128.786 39.3582C129.062 39.2629 129.37 39.2153 129.709 39.2153C130.117 39.2153 130.477 39.2833 130.788 39.4194C131.103 39.5555 131.347 39.7614 131.524 40.0369C131.704 40.3092 131.794 40.651 131.794 41.0627V43.6347C131.794 43.8184 131.81 44.014 131.84 44.2216C131.875 44.4291 131.925 44.6078 131.991 44.7575V44.8391H130.99C130.942 44.7302 130.904 44.5856 130.876 44.4053C130.848 44.2216 130.835 44.0515 130.835 43.8951ZM131.001 41.4914L131.01 42.1548H130.041C129.768 42.1548 129.524 42.1769 129.31 42.2211C129.095 42.262 128.916 42.3249 128.77 42.41C128.625 42.4951 128.514 42.6022 128.439 42.7314C128.362 42.8574 128.325 43.0053 128.325 43.1755C128.325 43.3489 128.364 43.5072 128.444 43.65C128.523 43.793 128.643 43.9069 128.802 43.992C128.964 44.0736 129.163 44.1144 129.398 44.1144C129.691 44.1144 129.951 44.0532 130.175 43.9307C130.4 43.8083 130.579 43.6586 130.71 43.4816C130.844 43.3047 130.917 43.1329 130.928 42.9662L131.338 43.4204C131.314 43.5632 131.248 43.7215 131.141 43.8951C131.033 44.0685 130.89 44.2352 130.71 44.3952C130.533 44.5516 130.323 44.6826 130.077 44.7881C129.836 44.8902 129.562 44.9412 129.258 44.9412C128.877 44.9412 128.544 44.868 128.257 44.7217C127.974 44.5755 127.752 44.3798 127.593 44.1348C127.438 43.8865 127.359 43.6093 127.359 43.303C127.359 43.0071 127.418 42.7467 127.536 42.5222C127.654 42.2943 127.823 42.1055 128.044 41.9558C128.266 41.8027 128.531 41.687 128.843 41.6088C129.155 41.5305 129.502 41.4914 129.885 41.4914H131.001Z" fill="#1D072D"/>
<path d="M126.186 39.3172V40.0419H123.152V39.3172H126.186ZM124.179 37.9751H125.139V43.4713C125.139 43.6584 125.168 43.7997 125.227 43.8949C125.286 43.9901 125.362 44.0531 125.456 44.0837C125.549 44.1144 125.649 44.1297 125.756 44.1297C125.835 44.1297 125.919 44.1228 126.005 44.1092C126.095 44.0922 126.162 44.0786 126.207 44.0684L126.213 44.839C126.136 44.8628 126.036 44.8849 125.912 44.9053C125.791 44.9292 125.643 44.9411 125.47 44.9411C125.236 44.9411 125.02 44.8952 124.822 44.8032C124.625 44.7114 124.468 44.5583 124.35 44.344C124.237 44.1263 124.179 43.8336 124.179 43.4663V37.9751Z" fill="#1D072D"/>
<path d="M122.085 39.3168V44.8386H121.119V39.3168H122.085ZM121.047 37.8522C121.047 37.6991 121.094 37.5698 121.187 37.4643C121.284 37.3588 121.426 37.3062 121.612 37.3062C121.795 37.3062 121.936 37.3588 122.033 37.4643C122.132 37.5698 122.183 37.6991 122.183 37.8522C122.183 37.9985 122.132 38.1243 122.033 38.2298C121.936 38.3319 121.795 38.3829 121.612 38.3829C121.426 38.3829 121.284 38.3319 121.187 38.2298C121.094 38.1243 121.047 37.9985 121.047 37.8522Z" fill="#1D072D"/>
<path d="M118.501 39.3174H119.371V44.7217C119.371 45.2083 119.271 45.6233 119.071 45.9669C118.87 46.3106 118.59 46.5708 118.23 46.7477C117.874 46.9281 117.463 47.0182 116.997 47.0182C116.803 47.0182 116.574 46.9876 116.312 46.9264C116.052 46.8685 115.797 46.7681 115.544 46.6253C115.295 46.4857 115.086 46.2969 114.916 46.0588L115.42 45.4974C115.655 45.7764 115.9 45.9703 116.156 46.0791C116.415 46.1881 116.672 46.2425 116.924 46.2425C117.228 46.2425 117.491 46.1864 117.712 46.0741C117.933 45.9619 118.104 45.7952 118.225 45.574C118.349 45.3562 118.412 45.0875 118.412 44.7676V40.5319L118.501 39.3174ZM114.637 42.1395V42.0323C114.637 41.6105 114.686 41.2277 114.787 40.8841C114.89 40.5371 115.037 40.2394 115.227 39.991C115.421 39.7427 115.655 39.5521 115.928 39.4194C116.201 39.2833 116.508 39.2153 116.85 39.2153C117.203 39.2153 117.511 39.2766 117.774 39.399C118.04 39.5181 118.265 39.6934 118.448 39.9247C118.635 40.1526 118.782 40.4282 118.889 40.7514C118.997 41.0746 119.071 41.4404 119.112 41.8486V42.3181C119.074 42.723 119 43.087 118.889 43.4102C118.782 43.7334 118.635 44.009 118.448 44.2369C118.265 44.4648 118.04 44.6401 117.774 44.7625C117.507 44.8816 117.196 44.9412 116.841 44.9412C116.506 44.9412 116.201 44.8714 115.928 44.7319C115.659 44.5925 115.426 44.3968 115.233 44.1451C115.039 43.8933 114.89 43.5973 114.787 43.2571C114.686 42.9134 114.637 42.541 114.637 42.1395ZM115.596 42.0323V42.1395C115.596 42.415 115.624 42.6736 115.678 42.9151C115.738 43.1568 115.826 43.3694 115.943 43.5531C116.064 43.7368 116.218 43.8814 116.405 43.9869C116.592 44.0889 116.815 44.14 117.074 44.14C117.392 44.14 117.655 44.0736 117.862 43.941C118.07 43.8083 118.234 43.633 118.355 43.4153C118.48 43.1975 118.576 42.9612 118.646 42.706V41.4761C118.607 41.289 118.548 41.1087 118.469 40.9351C118.393 40.7582 118.293 40.6017 118.169 40.4656C118.047 40.3262 117.897 40.2155 117.717 40.1339C117.537 40.0522 117.327 40.0115 117.084 40.0115C116.822 40.0115 116.595 40.0658 116.405 40.1748C116.218 40.2802 116.064 40.4265 115.943 40.6136C115.826 40.7973 115.738 41.0117 115.678 41.2566C115.624 41.4981 115.596 41.7568 115.596 42.0323Z" fill="#1D072D"/>
<path d="M113.115 39.3168V44.8386H112.151V39.3168H113.115ZM112.078 37.8522C112.078 37.6991 112.125 37.5698 112.218 37.4643C112.315 37.3588 112.457 37.3062 112.643 37.3062C112.827 37.3062 112.967 37.3588 113.063 37.4643C113.164 37.5698 113.213 37.6991 113.213 37.8522C113.213 37.9985 113.164 38.1243 113.063 38.2298C112.967 38.3319 112.827 38.3829 112.643 38.3829C112.457 38.3829 112.315 38.3319 112.218 38.2298C112.125 38.1243 112.078 37.9985 112.078 37.8522Z" fill="#1D072D"/>
<path d="M107.078 44.8395H105.501L105.512 44.0383H107.078C107.618 44.0383 108.067 43.9278 108.427 43.7066C108.787 43.482 109.056 43.169 109.236 42.7676C109.419 42.3628 109.51 41.8898 109.51 41.3488V40.8947C109.51 40.4694 109.459 40.0918 109.355 39.7618C109.251 39.4284 109.099 39.1476 108.899 38.9197C108.698 38.6884 108.453 38.5132 108.162 38.3941C107.875 38.275 107.545 38.2155 107.171 38.2155H105.471V37.4092H107.171C107.666 37.4092 108.118 37.4908 108.525 37.6541C108.933 37.814 109.284 38.0471 109.578 38.3533C109.875 38.6561 110.104 39.0235 110.263 39.4556C110.422 39.8842 110.501 40.3673 110.501 40.9049V41.3488C110.501 41.8864 110.422 42.3712 110.263 42.8033C110.104 43.2319 109.874 43.5977 109.573 43.9005C109.276 44.2033 108.916 44.4363 108.494 44.5996C108.076 44.7596 107.604 44.8395 107.078 44.8395ZM106.036 37.4092V44.8395H105.035V37.4092H106.036Z" fill="#1D072D"/>
<path d="M99.5003 39.3174H100.372V44.7217C100.372 45.2083 100.272 45.6233 100.071 45.9669C99.8701 46.3106 99.5908 46.5708 99.2308 46.7477C98.8747 46.9281 98.4633 47.0182 97.9965 47.0182C97.8028 47.0182 97.5747 46.9876 97.3119 46.9264C97.0525 46.8685 96.7968 46.7681 96.5443 46.6253C96.2954 46.4857 96.0862 46.2969 95.9167 46.0588L96.4198 45.4974C96.6549 45.7764 96.9004 45.9703 97.1563 46.0791C97.4156 46.1881 97.6715 46.2425 97.9239 46.2425C98.2281 46.2425 98.4909 46.1864 98.7122 46.0741C98.9334 45.9619 99.1046 45.7952 99.2256 45.574C99.35 45.3562 99.4119 45.0875 99.4119 44.7676V40.5319L99.5003 39.3174ZM95.6367 42.1395V42.0323C95.6367 41.6105 95.6868 41.2277 95.7871 40.8841C95.8909 40.5371 96.0378 40.2394 96.228 39.991C96.4216 39.7427 96.6549 39.5521 96.9281 39.4194C97.2012 39.2833 97.509 39.2153 97.8512 39.2153C98.2039 39.2153 98.5117 39.2766 98.7744 39.399C99.0406 39.5181 99.2653 39.6934 99.4486 39.9247C99.6355 40.1526 99.7826 40.4282 99.889 40.7514C99.9964 41.0746 100.071 41.4404 100.113 41.8486V42.3181C100.075 42.723 100 43.087 99.889 43.4102C99.7826 43.7334 99.6355 44.009 99.4486 44.2369C99.2653 44.4648 99.0406 44.6401 98.7744 44.7625C98.5082 44.8816 98.197 44.9412 97.8409 44.9412C97.5055 44.9412 97.2012 44.8714 96.9281 44.7319C96.6584 44.5925 96.4268 44.3968 96.2331 44.1451C96.0395 43.8933 95.8909 43.5973 95.7871 43.2571C95.6868 42.9134 95.6367 42.541 95.6367 42.1395ZM96.5962 42.0323V42.1395C96.5962 42.415 96.6238 42.6736 96.6792 42.9151C96.7379 43.1568 96.8261 43.3694 96.9437 43.5531C97.0647 43.7368 97.2185 43.8814 97.4052 43.9869C97.592 44.0889 97.815 44.14 98.0743 44.14C98.3924 44.14 98.6551 44.0736 98.8626 43.941C99.07 43.8083 99.2342 43.633 99.3553 43.4153C99.4795 43.1975 99.5769 42.9612 99.6455 42.706V41.4761C99.6077 41.289 99.549 41.1087 99.4695 40.9351C99.3933 40.7582 99.293 40.6017 99.1685 40.4656C99.0476 40.3262 98.8972 40.2155 98.7173 40.1339C98.5376 40.0522 98.3267 40.0115 98.0846 40.0115C97.8219 40.0115 97.5954 40.0658 97.4052 40.1748C97.2185 40.2802 97.0647 40.4265 96.9437 40.6136C96.8261 40.7973 96.7379 41.0117 96.6792 41.2566C96.6238 41.4981 96.5962 41.7568 96.5962 42.0323Z" fill="#1D072D"/>
<path d="M90.7408 40.4962V44.8391H89.7812V39.3174H90.6889L90.7408 40.4962ZM90.5126 41.869L90.1133 41.8537C90.1167 41.4761 90.1737 41.1274 90.2844 40.8076C90.3951 40.4843 90.5506 40.2037 90.7511 39.9655C90.9517 39.7274 91.1903 39.5437 91.4668 39.4143C91.7469 39.2816 92.0564 39.2153 92.3952 39.2153C92.6718 39.2153 92.9207 39.2527 93.142 39.3276C93.3633 39.399 93.5517 39.5147 93.7073 39.6746C93.8663 39.8345 93.9874 40.0421 94.0703 40.2972C94.1533 40.5489 94.1948 40.8569 94.1948 41.2209V44.8391H93.2302V41.2107C93.2302 40.9215 93.1869 40.6902 93.1005 40.5166C93.0141 40.3398 92.8879 40.2122 92.7219 40.1339C92.556 40.0522 92.3519 40.0115 92.11 40.0115C91.8714 40.0115 91.6535 40.0608 91.4565 40.1595C91.2629 40.2581 91.0952 40.3942 90.9534 40.5677C90.8151 40.7412 90.7062 40.9402 90.6267 41.1647C90.5506 41.3859 90.5126 41.6207 90.5126 41.869Z" fill="#1D072D"/>
<path d="M88.0295 39.3168V44.8386H87.0649V39.3168H88.0295ZM86.9922 37.8522C86.9922 37.6991 87.0389 37.5698 87.1322 37.4643C87.2291 37.3588 87.3708 37.3062 87.5575 37.3062C87.7408 37.3062 87.8808 37.3588 87.9776 37.4643C88.0779 37.5698 88.128 37.6991 88.128 37.8522C88.128 37.9985 88.0779 38.1243 87.9776 38.2298C87.8808 38.3319 87.7408 38.3829 87.5575 38.3829C87.3708 38.3829 87.2291 38.3319 87.1322 38.2298C87.0389 38.1243 86.9922 37.9985 86.9922 37.8522Z" fill="#1D072D"/>
<path d="M81.8618 40.4962V44.8391H80.9023V39.3174H81.8099L81.8618 40.4962ZM81.6336 41.869L81.2343 41.8537C81.2377 41.4761 81.2948 41.1274 81.4054 40.8076C81.5161 40.4843 81.6716 40.2037 81.8721 39.9655C82.0727 39.7274 82.3113 39.5437 82.5878 39.4143C82.8679 39.2816 83.1774 39.2153 83.5162 39.2153C83.7928 39.2153 84.0417 39.2527 84.263 39.3276C84.4843 39.399 84.6727 39.5147 84.8283 39.6746C84.9873 39.8345 85.1084 40.0421 85.1913 40.2972C85.2743 40.5489 85.3159 40.8569 85.3159 41.2209V44.8391H84.3512V41.2107C84.3512 40.9215 84.308 40.6902 84.2215 40.5166C84.135 40.3398 84.0089 40.2122 83.8429 40.1339C83.677 40.0522 83.473 40.0115 83.231 40.0115C82.9924 40.0115 82.7745 40.0608 82.5775 40.1595C82.3839 40.2581 82.2162 40.3942 82.0744 40.5677C81.9361 40.7412 81.8272 40.9402 81.7477 41.1647C81.6716 41.3859 81.6336 41.6207 81.6336 41.869Z" fill="#1D072D"/>
<path d="M79.1506 39.3168V44.8386H78.1859V39.3168H79.1506ZM78.1133 37.8522C78.1133 37.6991 78.16 37.5698 78.2533 37.4643C78.3502 37.3588 78.4919 37.3062 78.6786 37.3062C78.8619 37.3062 79.002 37.3588 79.0987 37.4643C79.199 37.5698 79.2491 37.6991 79.2491 37.8522C79.2491 37.9985 79.199 38.1243 79.0987 38.2298C79.002 38.3319 78.8619 38.3829 78.6786 38.3829C78.4919 38.3829 78.3502 38.3319 78.2533 38.2298C78.16 38.1243 78.1133 37.9985 78.1133 37.8522Z" fill="#1D072D"/>
<path d="M189.23 2.07051H187.297V1.0918H192.264V2.07051H190.331V7.41466H189.23V2.07051Z" fill="black"/>
<path d="M198.687 2.63533L196.724 7.44484H196.248L194.315 2.63533V7.44484H193.215V1.0918H194.791L196.516 5.36668L198.241 1.0918H199.816V7.41466H198.716V2.63533H198.687Z" fill="black"/>
</g>
</g>
</mask>
<g mask="url(#mask0_689_7987)">
<rect x="-6.91895" y="-6.21484" width="211.429" height="62.6051" fill="#D9D9D9"/>
</g>
<defs>
<linearGradient id="paint0_linear_689_7987" x1="32.4682" y1="4.53953" x2="-3.4345" y2="14.8269" gradientUnits="userSpaceOnUse">
<stop stop-color="#0075CC"/>
<stop offset="1" stop-color="#00E6E6"/>
</linearGradient>
<linearGradient id="paint1_linear_689_7987" x1="-17.9139" y1="53.3928" x2="27.2209" y2="38.3653" gradientUnits="userSpaceOnUse">
<stop stop-color="#FFFF00"/>
<stop offset="1" stop-color="#FF9615"/>
</linearGradient>
<linearGradient id="paint2_linear_689_7987" x1="2.51502" y1="39.064" x2="18.0254" y2="11.4924" gradientUnits="userSpaceOnUse">
<stop offset="0.06" stop-color="#890D72"/>
<stop offset="0.92" stop-color="#EE61A6"/>
</linearGradient>
<linearGradient id="paint3_linear_689_7987" x1="32.5729" y1="25.3333" x2="-10.2029" y2="41.4777" gradientUnits="userSpaceOnUse">
<stop stop-color="#FF0029"/>
<stop offset="0.29" stop-color="#F53500"/>
<stop offset="0.51" stop-color="#F58700"/>
<stop offset="0.74" stop-color="#FFC400"/>
<stop offset="0.9" stop-color="#FFE302"/>
<stop offset="1" stop-color="#FFEF00"/>
</linearGradient>
<linearGradient id="paint4_linear_689_7987" x1="16.6608" y1="-0.377418" x2="22.0298" y2="30.6702" gradientUnits="userSpaceOnUse">
<stop stop-color="#00FFFF"/>
<stop offset="0.45" stop-color="#0075CC"/>
</linearGradient>
<linearGradient id="paint5_linear_689_7987" x1="32.4113" y1="3.40745" x2="-22.0023" y2="26.3288" gradientUnits="userSpaceOnUse">
<stop stop-color="#0075CC"/>
<stop offset="1" stop-color="#00E6E6"/>
</linearGradient>
<linearGradient id="paint6_linear_689_7987" x1="-5.49142" y1="55.546" x2="40.4053" y2="32.4702" gradientUnits="userSpaceOnUse">
<stop stop-color="#FFFF00"/>
<stop offset="1" stop-color="#FF9615"/>
</linearGradient>
<clipPath id="clip0_689_7987">
<rect width="200" height="48" fill="white"/>
</clipPath>
</defs>
</svg>
