<svg width="24" height="24" viewBox="0 0 24 24" fill="none" xmlns="http://www.w3.org/2000/svg">
<rect width="24" height="24" rx="12" fill="white"/>
<path d="M11.807 9.91714C12.5144 9.19431 13.4355 8.72143 14.507 8.72143C15.6323 8.72143 16.7115 9.16844 17.5072 9.96413C18.3029 10.7598 18.7499 11.839 18.7499 12.9643V18.75H17.207V12.9643C17.207 12.2482 16.9226 11.5614 16.4162 11.0551C15.9099 10.5487 15.2231 10.2643 14.507 10.2643C13.7909 10.2643 13.1042 10.5487 12.5978 11.0551C12.0915 11.5614 11.807 12.2482 11.807 12.9643V18.75H10.2642V9.10714H11.807V9.91714ZM6.40702 7.56429C6.10013 7.56429 5.8058 7.44237 5.5888 7.22537C5.37179 7.00836 5.24988 6.71404 5.24988 6.40714C5.24988 6.10025 5.37179 5.80593 5.5888 5.58892C5.8058 5.37191 6.10013 5.25 6.40702 5.25C6.71391 5.25 7.00824 5.37191 7.22524 5.58892C7.44225 5.80593 7.56416 6.10025 7.56416 6.40714C7.56416 6.71404 7.44225 7.00836 7.22524 7.22537C7.00824 7.44237 6.71391 7.56429 6.40702 7.56429ZM5.63559 9.10714H7.17845V18.75H5.63559V9.10714Z" fill="black"/>
</svg>
