<svg xmlns="http://www.w3.org/2000/svg" width="35" height="35" fill="none" viewBox="0 0 35 35"><g fill="#fff" fill-opacity=".3" clip-path="url(#a)"><path d="M35 3.777A3.72 3.72 0 0 0 31.354 0H3.646A3.72 3.72 0 0 0 0 3.777v20.286a4.375 4.375 0 0 0 4.375 4.375h10.573a.365.365 0 0 1 .364.364v2.917a.365.365 0 0 1-.364.364H7.292a1.458 1.458 0 0 0 0 2.917h20.416a1.458 1.458 0 1 0 0-2.917h-9.114a.365.365 0 0 1-.365-.364v-2.917a.365.365 0 0 1 .365-.364h12.031A4.375 4.375 0 0 0 35 24.063zM3.646 21.875a.73.73 0 0 1-.73-.73V3.778a.8.8 0 0 1 .73-.86h27.708a.8.8 0 0 1 .73.86v17.369a.73.73 0 0 1-.73.729z"/><path d="M12.192 11.987a2.712 2.712 0 0 0 1.297 5.09 2.6 2.6 0 0 0 1.27-.336l.203-.102v.073a4.38 4.38 0 0 0 3.705 2.917h.16a1.167 1.167 0 0 0 .146-2.32 2.04 2.04 0 0 1-1.721-1.268 1.3 1.3 0 0 0-.204-.394 15.9 15.9 0 0 1 6.475-1.458.932.932 0 0 0 .773-1.37l-3.53-6.563a.934.934 0 0 0-1.56-.117 17.06 17.06 0 0 1-6.212 5.381z"/></g><defs><clipPath id="a"><path fill="#fff" d="M0 0h35v35H0z"/></clipPath></defs></svg>