<svg xmlns="http://www.w3.org/2000/svg" width="104" height="72" fill="none" viewBox="0 0 104 72"><path fill="#034d71" d="m89.175 0 14.096 15H85.047z"/><path fill="#027eba" d="M0 5a5 5 0 0 1 5-5h84.334L73.492 67.222a5 5 0 0 1-4.867 3.853H5a5 5 0 0 1-5-5z"/><path fill="#fff" fill-rule="evenodd" d="M38.882 18.62h-.173c-1.498 0-2.747 0-3.737.134-1.046.14-1.991.45-2.75 1.208-.76.76-1.07 1.705-1.21 2.75-.095.712-.123 2.41-.13 3.867-3.37.112-5.395.505-6.8 1.912-1.953 1.951-1.953 5.095-1.953 11.38s0 9.428 1.953 11.38 5.095 1.953 11.38 1.953h6.667c6.285 0 9.428 0 11.38-1.953s1.953-5.095 1.953-11.38 0-9.429-1.953-11.38c-1.405-1.407-3.43-1.8-6.8-1.91-.007-1.459-.033-3.157-.13-3.867-.14-1.047-.45-1.992-1.21-2.75-.758-.76-1.703-1.07-2.75-1.21-.99-.133-2.24-.133-3.737-.133m5.327 7.92c-.008-1.411-.032-2.93-.107-3.494-.105-.769-.283-1.099-.5-1.315-.216-.217-.546-.395-1.316-.5-.804-.107-1.884-.11-3.49-.11s-2.687.003-3.492.111c-.768.104-1.098.282-1.315.5s-.395.545-.5 1.314c-.075.566-.1 2.083-.107 3.495q.98-.006 2.08-.004h6.667q1.104 0 2.08.004m-5.413 5.414a1.25 1.25 0 0 1 1.25 1.25v.017c1.815.456 3.333 1.888 3.333 3.871a1.25 1.25 0 0 1-2.5 0c0-.64-.71-1.526-2.083-1.526s-2.084.886-2.084 1.526.71 1.529 2.084 1.529c2.308 0 4.583 1.6 4.583 4.028 0 1.983-1.518 3.413-3.333 3.872v.016a1.25 1.25 0 0 1-2.5 0v-.016c-1.815-.457-3.334-1.889-3.334-3.872a1.25 1.25 0 1 1 2.5 0c0 .64.71 1.527 2.084 1.527 1.373 0 2.083-.887 2.083-1.527s-.71-1.528-2.083-1.528c-2.309 0-4.584-1.6-4.584-4.029 0-1.983 1.519-3.415 3.334-3.871v-.017a1.25 1.25 0 0 1 1.25-1.25" clip-rule="evenodd"/></svg>