<svg width="104" height="72" viewBox="0 0 104 72" fill="none" xmlns="http://www.w3.org/2000/svg">
<path d="M89.1753 0L103.271 15H85.0469L89.1753 0Z" fill="#034D71"/>
<path d="M0 4.99999C0 2.23857 2.23858 0 5 0H89.3339L73.4918 67.2215C72.9597 69.4793 70.9447 71.0746 68.6252 71.0746H5C2.23858 71.0746 0 68.836 0 66.0746V4.99999Z" fill="#027EBA"/>
<path d="M51.9997 26.1123L38.3757 17.3535L24.7582 26.1123L26.5148 28.8455L27.0023 28.5319V34.0845L21.5195 37.4353L23.2144 40.2091L23.7539 39.8793V51.7873H36.7539V42.0373H40.0039V51.7873H53.0039V39.8793L53.5434 40.2091L55.2383 37.4353L49.7539 34.0845V28.5319L50.2414 28.8455L51.9997 26.1123ZM30.2539 32.0955V26.4405L38.3757 21.2178L46.5039 26.4421V32.0971L38.3789 27.1328L30.2539 32.0955Z" fill="white"/>
</svg>
